<?xml version="1.0" encoding="utf-8"?>
<svg xmlns="http://www.w3.org/2000/svg" xmlns:xlink="http://www.w3.org/1999/xlink" width="600" height="400" viewBox="0 0 2400 1600">
<defs>
  <clipPath id="clip2300">
    <rect x="0" y="0" width="2400" height="1600"/>
  </clipPath>
</defs>
<polygon clip-path="url(#clip2300)" points="
0,1600 2400,1600 2400,0 0,0 
  " fill="#ffffff" fill-rule="evenodd" fill-opacity="1"/>
<defs>
  <clipPath id="clip2301">
    <rect x="480" y="0" width="1681" height="1600"/>
  </clipPath>
</defs>
<polygon clip-path="url(#clip2300)" points="
122.763,1458.38 2352.76,1458.38 2352.76,47.2441 122.763,47.2441 
  " fill="#ffffff" fill-rule="evenodd" fill-opacity="1"/>
<defs>
  <clipPath id="clip2302">
    <rect x="122" y="47" width="2231" height="1412"/>
  </clipPath>
</defs>
<polyline clip-path="url(#clip2302)" style="stroke:#000000; stroke-width:2; stroke-opacity:0.1; fill:none" points="
  122.763,1458.38 122.763,47.2441 
  "/>
<polyline clip-path="url(#clip2302)" style="stroke:#000000; stroke-width:2; stroke-opacity:0.1; fill:none" points="
  680.261,1458.38 680.261,47.2441 
  "/>
<polyline clip-path="url(#clip2302)" style="stroke:#000000; stroke-width:2; stroke-opacity:0.1; fill:none" points="
  1237.76,1458.38 1237.76,47.2441 
  "/>
<polyline clip-path="url(#clip2302)" style="stroke:#000000; stroke-width:2; stroke-opacity:0.1; fill:none" points="
  1795.26,1458.38 1795.26,47.2441 
  "/>
<polyline clip-path="url(#clip2302)" style="stroke:#000000; stroke-width:2; stroke-opacity:0.1; fill:none" points="
  2352.76,1458.38 2352.76,47.2441 
  "/>
<polyline clip-path="url(#clip2302)" style="stroke:#000000; stroke-width:2; stroke-opacity:0.1; fill:none" points="
  122.763,1392.54 2352.76,1392.54 
  "/>
<polyline clip-path="url(#clip2302)" style="stroke:#000000; stroke-width:2; stroke-opacity:0.1; fill:none" points="
  122.763,957.423 2352.76,957.423 
  "/>
<polyline clip-path="url(#clip2302)" style="stroke:#000000; stroke-width:2; stroke-opacity:0.1; fill:none" points="
  122.763,522.302 2352.76,522.302 
  "/>
<polyline clip-path="url(#clip2302)" style="stroke:#000000; stroke-width:2; stroke-opacity:0.1; fill:none" points="
  122.763,87.1818 2352.76,87.1818 
  "/>
<polyline clip-path="url(#clip2300)" style="stroke:#000000; stroke-width:4; stroke-opacity:1; fill:none" points="
  122.763,1458.38 2352.76,1458.38 
  "/>
<polyline clip-path="url(#clip2300)" style="stroke:#000000; stroke-width:4; stroke-opacity:1; fill:none" points="
  122.763,1458.38 122.763,47.2441 
  "/>
<polyline clip-path="url(#clip2300)" style="stroke:#000000; stroke-width:4; stroke-opacity:1; fill:none" points="
  122.763,1458.38 122.763,1437.21 
  "/>
<polyline clip-path="url(#clip2300)" style="stroke:#000000; stroke-width:4; stroke-opacity:1; fill:none" points="
  680.261,1458.38 680.261,1437.21 
  "/>
<polyline clip-path="url(#clip2300)" style="stroke:#000000; stroke-width:4; stroke-opacity:1; fill:none" points="
  1237.76,1458.38 1237.76,1437.21 
  "/>
<polyline clip-path="url(#clip2300)" style="stroke:#000000; stroke-width:4; stroke-opacity:1; fill:none" points="
  1795.26,1458.38 1795.26,1437.21 
  "/>
<polyline clip-path="url(#clip2300)" style="stroke:#000000; stroke-width:4; stroke-opacity:1; fill:none" points="
  2352.76,1458.38 2352.76,1437.21 
  "/>
<polyline clip-path="url(#clip2300)" style="stroke:#000000; stroke-width:4; stroke-opacity:1; fill:none" points="
  122.763,1392.54 156.213,1392.54 
  "/>
<polyline clip-path="url(#clip2300)" style="stroke:#000000; stroke-width:4; stroke-opacity:1; fill:none" points="
  122.763,957.423 156.213,957.423 
  "/>
<polyline clip-path="url(#clip2300)" style="stroke:#000000; stroke-width:4; stroke-opacity:1; fill:none" points="
  122.763,522.302 156.213,522.302 
  "/>
<polyline clip-path="url(#clip2300)" style="stroke:#000000; stroke-width:4; stroke-opacity:1; fill:none" points="
  122.763,87.1818 156.213,87.1818 
  "/>
<g clip-path="url(#clip2300)">
<text style="fill:#000000; fill-opacity:1; font-family:Arial,Helvetica Neue,Helvetica,sans-serif; font-size:48px; text-anchor:middle;" transform="rotate(0, 122.763, 1512.38)" x="122.763" y="1512.38">0.0</text>
</g>
<g clip-path="url(#clip2300)">
<text style="fill:#000000; fill-opacity:1; font-family:Arial,Helvetica Neue,Helvetica,sans-serif; font-size:48px; text-anchor:middle;" transform="rotate(0, 680.261, 1512.38)" x="680.261" y="1512.38">0.1</text>
</g>
<g clip-path="url(#clip2300)">
<text style="fill:#000000; fill-opacity:1; font-family:Arial,Helvetica Neue,Helvetica,sans-serif; font-size:48px; text-anchor:middle;" transform="rotate(0, 1237.76, 1512.38)" x="1237.76" y="1512.38">0.2</text>
</g>
<g clip-path="url(#clip2300)">
<text style="fill:#000000; fill-opacity:1; font-family:Arial,Helvetica Neue,Helvetica,sans-serif; font-size:48px; text-anchor:middle;" transform="rotate(0, 1795.26, 1512.38)" x="1795.26" y="1512.38">0.3</text>
</g>
<g clip-path="url(#clip2300)">
<text style="fill:#000000; fill-opacity:1; font-family:Arial,Helvetica Neue,Helvetica,sans-serif; font-size:48px; text-anchor:middle;" transform="rotate(0, 2352.76, 1512.38)" x="2352.76" y="1512.38">0.4</text>
</g>
<g clip-path="url(#clip2300)">
<text style="fill:#000000; fill-opacity:1; font-family:Arial,Helvetica Neue,Helvetica,sans-serif; font-size:48px; text-anchor:end;" transform="rotate(0, 98.7627, 1410.04)" x="98.7627" y="1410.04">0.5</text>
</g>
<g clip-path="url(#clip2300)">
<text style="fill:#000000; fill-opacity:1; font-family:Arial,Helvetica Neue,Helvetica,sans-serif; font-size:48px; text-anchor:end;" transform="rotate(0, 98.7627, 974.923)" x="98.7627" y="974.923">0.6</text>
</g>
<g clip-path="url(#clip2300)">
<text style="fill:#000000; fill-opacity:1; font-family:Arial,Helvetica Neue,Helvetica,sans-serif; font-size:48px; text-anchor:end;" transform="rotate(0, 98.7627, 539.802)" x="98.7627" y="539.802">0.7</text>
</g>
<g clip-path="url(#clip2300)">
<text style="fill:#000000; fill-opacity:1; font-family:Arial,Helvetica Neue,Helvetica,sans-serif; font-size:48px; text-anchor:end;" transform="rotate(0, 98.7627, 104.682)" x="98.7627" y="104.682">0.8</text>
</g>
<g clip-path="url(#clip2300)">
<text style="fill:#000000; fill-opacity:1; font-family:Arial,Helvetica Neue,Helvetica,sans-serif; font-size:66px; text-anchor:middle;" transform="rotate(0, 1237.76, 1592.24)" x="1237.76" y="1592.24">t</text>
</g>
<polyline clip-path="url(#clip2302)" style="stroke:#009af9; stroke-width:4; stroke-opacity:1; fill:none" points="
  122.763,957.423 680.261,1079.45 1237.76,1198.87 1795.26,1311.84 2352.76,1416.89 
  "/>
<polyline clip-path="url(#clip2302)" style="stroke:#e26f46; stroke-width:4; stroke-opacity:1; fill:none" points="
  122.763,87.1818 680.261,520.26 1237.76,868.377 1795.26,1153.14 2352.76,1389.64 
  "/>
<polyline clip-path="url(#clip2302)" style="stroke:#3da44d; stroke-width:12; stroke-opacity:1; fill:none" stroke-dasharray="48, 30" points="
  122.763,957.423 124.995,957.911 127.227,958.399 129.459,958.887 131.692,959.375 133.924,959.863 136.156,960.351 138.388,960.839 140.621,961.328 142.853,961.816 
  145.085,962.305 147.317,962.793 149.549,963.282 151.782,963.771 154.014,964.26 156.246,964.748 158.478,965.237 160.711,965.726 162.943,966.215 165.175,966.705 
  167.407,967.194 169.639,967.683 171.872,968.172 174.104,968.662 176.336,969.151 178.568,969.641 180.801,970.13 183.033,970.62 185.265,971.11 187.497,971.599 
  189.729,972.089 191.962,972.579 194.194,973.069 196.426,973.559 198.658,974.049 200.891,974.539 203.123,975.029 205.355,975.519 207.587,976.01 209.82,976.5 
  212.052,976.99 214.284,977.481 216.516,977.971 218.748,978.462 220.981,978.952 223.213,979.443 225.445,979.933 227.677,980.424 229.91,980.915 232.142,981.406 
  234.374,981.896 236.606,982.387 238.838,982.878 241.071,983.369 243.303,983.86 245.535,984.351 247.767,984.842 250,985.333 252.232,985.825 254.464,986.316 
  256.696,986.807 258.928,987.298 261.161,987.79 263.393,988.281 265.625,988.772 267.857,989.264 270.09,989.755 272.322,990.247 274.554,990.738 276.786,991.23 
  279.019,991.721 281.251,992.213 283.483,992.705 285.715,993.196 287.947,993.688 290.18,994.18 292.412,994.672 294.644,995.163 296.876,995.655 299.109,996.147 
  301.341,996.639 303.573,997.131 305.805,997.623 308.037,998.115 310.27,998.607 312.502,999.099 314.734,999.591 316.966,1000.08 319.199,1000.57 321.431,1001.07 
  323.663,1001.56 325.895,1002.05 328.127,1002.54 330.36,1003.04 332.592,1003.53 334.824,1004.02 337.056,1004.51 339.289,1005 341.521,1005.5 343.753,1005.99 
  345.985,1006.48 348.217,1006.97 350.45,1007.47 352.682,1007.96 354.914,1008.45 357.146,1008.94 359.379,1009.44 361.611,1009.93 363.843,1010.42 366.075,1010.91 
  368.308,1011.41 370.54,1011.9 372.772,1012.39 375.004,1012.88 377.236,1013.38 379.469,1013.87 381.701,1014.36 383.933,1014.85 386.165,1015.34 388.398,1015.84 
  390.63,1016.33 392.862,1016.82 395.094,1017.31 397.326,1017.81 399.559,1018.3 401.791,1018.79 404.023,1019.28 406.255,1019.78 408.488,1020.27 410.72,1020.76 
  412.952,1021.26 415.184,1021.75 417.416,1022.24 419.649,1022.73 421.881,1023.23 424.113,1023.72 426.345,1024.21 428.578,1024.7 430.81,1025.2 433.042,1025.69 
  435.274,1026.18 437.507,1026.67 439.739,1027.17 441.971,1027.66 444.203,1028.15 446.435,1028.64 448.668,1029.13 450.9,1029.63 453.132,1030.12 455.364,1030.61 
  457.597,1031.1 459.829,1031.6 462.061,1032.09 464.293,1032.58 466.525,1033.07 468.758,1033.57 470.99,1034.06 473.222,1034.55 475.454,1035.04 477.687,1035.54 
  479.919,1036.03 482.151,1036.52 484.383,1037.01 486.615,1037.5 488.848,1038 491.08,1038.49 493.312,1038.98 495.544,1039.47 497.777,1039.97 500.009,1040.46 
  502.241,1040.95 504.473,1041.44 506.705,1041.93 508.938,1042.43 511.17,1042.92 513.402,1043.41 515.634,1043.9 517.867,1044.39 520.099,1044.89 522.331,1045.38 
  524.563,1045.87 526.796,1046.36 529.028,1046.85 531.26,1047.35 533.492,1047.84 535.724,1048.33 537.957,1048.82 540.189,1049.31 542.421,1049.8 544.653,1050.3 
  546.886,1050.79 549.118,1051.28 551.35,1051.77 553.582,1052.26 555.814,1052.75 558.047,1053.24 560.279,1053.74 562.511,1054.23 564.743,1054.72 566.976,1055.21 
  569.208,1055.7 571.44,1056.19 573.672,1056.68 575.904,1057.18 578.137,1057.67 580.369,1058.16 582.601,1058.65 584.833,1059.14 587.066,1059.63 589.298,1060.12 
  591.53,1060.61 593.762,1061.1 595.995,1061.59 598.227,1062.09 600.459,1062.58 602.691,1063.07 604.923,1063.56 607.156,1064.05 609.388,1064.54 611.62,1065.03 
  613.852,1065.52 616.085,1066.01 618.317,1066.5 620.549,1066.99 622.781,1067.48 625.013,1067.97 627.246,1068.46 629.478,1068.95 631.71,1069.44 633.942,1069.93 
  636.175,1070.42 638.407,1070.91 640.639,1071.4 642.871,1071.89 645.103,1072.38 647.336,1072.87 649.568,1073.36 651.8,1073.85 654.032,1074.34 656.265,1074.83 
  658.497,1075.32 660.729,1075.81 662.961,1076.3 665.193,1076.79 667.426,1077.28 669.658,1077.77 671.89,1078.26 674.122,1078.75 676.355,1079.24 678.587,1079.73 
  680.819,1080.22 683.051,1080.71 685.284,1081.2 687.516,1081.69 689.748,1082.17 691.98,1082.66 694.212,1083.15 696.445,1083.64 698.677,1084.13 700.909,1084.62 
  703.141,1085.11 705.374,1085.6 707.606,1086.08 709.838,1086.57 712.07,1087.06 714.302,1087.55 716.535,1088.04 718.767,1088.53 720.999,1089.02 723.231,1089.5 
  725.464,1089.99 727.696,1090.48 729.928,1090.97 732.16,1091.46 734.392,1091.94 736.625,1092.43 738.857,1092.92 741.089,1093.41 743.321,1093.89 745.554,1094.38 
  747.786,1094.87 750.018,1095.36 752.25,1095.84 754.483,1096.33 756.715,1096.82 758.947,1097.31 761.179,1097.79 763.411,1098.28 765.644,1098.77 767.876,1099.26 
  770.108,1099.74 772.34,1100.23 774.573,1100.72 776.805,1101.2 779.037,1101.69 781.269,1102.18 783.501,1102.66 785.734,1103.15 787.966,1103.64 790.198,1104.12 
  792.43,1104.61 794.663,1105.09 796.895,1105.58 799.127,1106.07 801.359,1106.55 803.591,1107.04 805.824,1107.52 808.056,1108.01 810.288,1108.5 812.52,1108.98 
  814.753,1109.47 816.985,1109.95 819.217,1110.44 821.449,1110.92 823.682,1111.41 825.914,1111.89 828.146,1112.38 830.378,1112.86 832.61,1113.35 834.843,1113.83 
  837.075,1114.32 839.307,1114.8 841.539,1115.29 843.772,1115.77 846.004,1116.26 848.236,1116.74 850.468,1117.23 852.7,1117.71 854.933,1118.2 857.165,1118.68 
  859.397,1119.16 861.629,1119.65 863.862,1120.13 866.094,1120.62 868.326,1121.1 870.558,1121.58 872.79,1122.07 875.023,1122.55 877.255,1123.03 879.487,1123.52 
  881.719,1124 883.952,1124.48 886.184,1124.97 888.416,1125.45 890.648,1125.93 892.88,1126.42 895.113,1126.9 897.345,1127.38 899.577,1127.87 901.809,1128.35 
  904.042,1128.83 906.274,1129.31 908.506,1129.8 910.738,1130.28 912.971,1130.76 915.203,1131.24 917.435,1131.72 919.667,1132.21 921.899,1132.69 924.132,1133.17 
  926.364,1133.65 928.596,1134.13 930.828,1134.62 933.061,1135.1 935.293,1135.58 937.525,1136.06 939.757,1136.54 941.989,1137.02 944.222,1137.5 946.454,1137.98 
  948.686,1138.47 950.918,1138.95 953.151,1139.43 955.383,1139.91 957.615,1140.39 959.847,1140.87 962.079,1141.35 964.312,1141.83 966.544,1142.31 968.776,1142.79 
  971.008,1143.27 973.241,1143.75 975.473,1144.23 977.705,1144.71 979.937,1145.19 982.17,1145.67 984.402,1146.15 986.634,1146.63 988.866,1147.11 991.098,1147.59 
  993.331,1148.07 995.563,1148.55 997.795,1149.03 1000.03,1149.5 1002.26,1149.98 1004.49,1150.46 1006.72,1150.94 1008.96,1151.42 1011.19,1151.9 1013.42,1152.38 
  1015.65,1152.85 1017.89,1153.33 1020.12,1153.81 1022.35,1154.29 1024.58,1154.77 1026.81,1155.24 1029.05,1155.72 1031.28,1156.2 1033.51,1156.68 1035.74,1157.15 
  1037.98,1157.63 1040.21,1158.11 1042.44,1158.59 1044.67,1159.06 1046.9,1159.54 1049.14,1160.02 1051.37,1160.49 1053.6,1160.97 1055.83,1161.45 1058.07,1161.92 
  1060.3,1162.4 1062.53,1162.88 1064.76,1163.35 1066.99,1163.83 1069.23,1164.31 1071.46,1164.78 1073.69,1165.26 1075.92,1165.73 1078.16,1166.21 1080.39,1166.68 
  1082.62,1167.16 1084.85,1167.64 1087.08,1168.11 1089.32,1168.59 1091.55,1169.06 1093.78,1169.54 1096.01,1170.01 1098.25,1170.49 1100.48,1170.96 1102.71,1171.43 
  1104.94,1171.91 1107.17,1172.38 1109.41,1172.86 1111.64,1173.33 1113.87,1173.81 1116.1,1174.28 1118.34,1174.75 1120.57,1175.23 1122.8,1175.7 1125.03,1176.18 
  1127.26,1176.65 1129.5,1177.12 1131.73,1177.6 1133.96,1178.07 1136.19,1178.54 1138.43,1179.01 1140.66,1179.49 1142.89,1179.96 1145.12,1180.43 1147.35,1180.91 
  1149.59,1181.38 1151.82,1181.85 1154.05,1182.32 1156.28,1182.79 1158.52,1183.27 1160.75,1183.74 1162.98,1184.21 1165.21,1184.68 1167.44,1185.15 1169.68,1185.63 
  1171.91,1186.1 1174.14,1186.57 1176.37,1187.04 1178.61,1187.51 1180.84,1187.98 1183.07,1188.45 1185.3,1188.92 1187.53,1189.39 1189.77,1189.86 1192,1190.34 
  1194.23,1190.81 1196.46,1191.28 1198.7,1191.75 1200.93,1192.22 1203.16,1192.69 1205.39,1193.16 1207.62,1193.63 1209.86,1194.1 1212.09,1194.57 1214.32,1195.03 
  1216.55,1195.5 1218.79,1195.97 1221.02,1196.44 1223.25,1196.91 1225.48,1197.38 1227.71,1197.85 1229.95,1198.32 1232.18,1198.79 1234.41,1199.25 1236.64,1199.72 
  1238.88,1200.19 1241.11,1200.66 1243.34,1201.13 1245.57,1201.6 1247.8,1202.06 1250.04,1202.53 1252.27,1203 1254.5,1203.47 1256.73,1203.93 1258.97,1204.4 
  1261.2,1204.87 1263.43,1205.33 1265.66,1205.8 1267.89,1206.27 1270.13,1206.73 1272.36,1207.2 1274.59,1207.67 1276.82,1208.13 1279.06,1208.6 1281.29,1209.07 
  1283.52,1209.53 1285.75,1210 1287.98,1210.46 1290.22,1210.93 1292.45,1211.4 1294.68,1211.86 1296.91,1212.33 1299.15,1212.79 1301.38,1213.26 1303.61,1213.72 
  1305.84,1214.19 1308.07,1214.65 1310.31,1215.12 1312.54,1215.58 1314.77,1216.05 1317,1216.51 1319.24,1216.97 1321.47,1217.44 1323.7,1217.9 1325.93,1218.37 
  1328.16,1218.83 1330.4,1219.29 1332.63,1219.76 1334.86,1220.22 1337.09,1220.68 1339.33,1221.15 1341.56,1221.61 1343.79,1222.07 1346.02,1222.54 1348.25,1223 
  1350.49,1223.46 1352.72,1223.92 1354.95,1224.39 1357.18,1224.85 1359.42,1225.31 1361.65,1225.77 1363.88,1226.23 1366.11,1226.7 1368.34,1227.16 1370.58,1227.62 
  1372.81,1228.08 1375.04,1228.54 1377.27,1229 1379.51,1229.46 1381.74,1229.93 1383.97,1230.39 1386.2,1230.85 1388.43,1231.31 1390.67,1231.77 1392.9,1232.23 
  1395.13,1232.69 1397.36,1233.15 1399.6,1233.61 1401.83,1234.07 1404.06,1234.53 1406.29,1234.99 1408.52,1235.45 1410.76,1235.91 1412.99,1236.37 1415.22,1236.83 
  1417.45,1237.29 1419.69,1237.75 1421.92,1238.2 1424.15,1238.66 1426.38,1239.12 1428.61,1239.58 1430.85,1240.04 1433.08,1240.5 1435.31,1240.95 1437.54,1241.41 
  1439.78,1241.87 1442.01,1242.33 1444.24,1242.79 1446.47,1243.24 1448.7,1243.7 1450.94,1244.16 1453.17,1244.62 1455.4,1245.07 1457.63,1245.53 1459.87,1245.99 
  1462.1,1246.44 1464.33,1246.9 1466.56,1247.36 1468.79,1247.81 1471.03,1248.27 1473.26,1248.73 1475.49,1249.18 1477.72,1249.64 1479.96,1250.09 1482.19,1250.55 
  1484.42,1251 1486.65,1251.46 1488.88,1251.91 1491.12,1252.37 1493.35,1252.83 1495.58,1253.28 1497.81,1253.73 1500.05,1254.19 1502.28,1254.64 1504.51,1255.1 
  1506.74,1255.55 1508.97,1256.01 1511.21,1256.46 1513.44,1256.91 1515.67,1257.37 1517.9,1257.82 1520.14,1258.28 1522.37,1258.73 1524.6,1259.18 1526.83,1259.64 
  1529.06,1260.09 1531.3,1260.54 1533.53,1260.99 1535.76,1261.45 1537.99,1261.9 1540.23,1262.35 1542.46,1262.8 1544.69,1263.26 1546.92,1263.71 1549.15,1264.16 
  1551.39,1264.61 1553.62,1265.06 1555.85,1265.52 1558.08,1265.97 1560.32,1266.42 1562.55,1266.87 1564.78,1267.32 1567.01,1267.77 1569.24,1268.22 1571.48,1268.67 
  1573.71,1269.12 1575.94,1269.58 1578.17,1270.03 1580.41,1270.48 1582.64,1270.93 1584.87,1271.38 1587.1,1271.83 1589.33,1272.28 1591.57,1272.72 1593.8,1273.17 
  1596.03,1273.62 1598.26,1274.07 1600.5,1274.52 1602.73,1274.97 1604.96,1275.42 1607.19,1275.87 1609.42,1276.32 1611.66,1276.77 1613.89,1277.21 1616.12,1277.66 
  1618.35,1278.11 1620.59,1278.56 1622.82,1279.01 1625.05,1279.45 1627.28,1279.9 1629.51,1280.35 1631.75,1280.8 1633.98,1281.24 1636.21,1281.69 1638.44,1282.14 
  1640.68,1282.58 1642.91,1283.03 1645.14,1283.48 1647.37,1283.92 1649.6,1284.37 1651.84,1284.82 1654.07,1285.26 1656.3,1285.71 1658.53,1286.15 1660.77,1286.6 
  1663,1287.05 1665.23,1287.49 1667.46,1287.94 1669.69,1288.38 1671.93,1288.83 1674.16,1289.27 1676.39,1289.72 1678.62,1290.16 1680.86,1290.61 1683.09,1291.05 
  1685.32,1291.49 1687.55,1291.94 1689.78,1292.38 1692.02,1292.83 1694.25,1293.27 1696.48,1293.71 1698.71,1294.16 1700.95,1294.6 1703.18,1295.04 1705.41,1295.49 
  1707.64,1295.93 1709.87,1296.37 1712.11,1296.82 1714.34,1297.26 1716.57,1297.7 1718.8,1298.14 1721.04,1298.59 1723.27,1299.03 1725.5,1299.47 1727.73,1299.91 
  1729.97,1300.35 1732.2,1300.79 1734.43,1301.24 1736.66,1301.68 1738.89,1302.12 1741.13,1302.56 1743.36,1303 1745.59,1303.44 1747.82,1303.88 1750.06,1304.32 
  1752.29,1304.76 1754.52,1305.2 1756.75,1305.64 1758.98,1306.08 1761.22,1306.52 1763.45,1306.96 1765.68,1307.4 1767.91,1307.84 1770.15,1308.28 1772.38,1308.72 
  1774.61,1309.16 1776.84,1309.6 1779.07,1310.04 1781.31,1310.48 1783.54,1310.92 1785.77,1311.35 1788,1311.79 1790.24,1312.23 1792.47,1312.67 1794.7,1313.11 
  1796.93,1313.54 1799.16,1313.98 1801.4,1314.42 1803.63,1314.86 1805.86,1315.29 1808.09,1315.73 1810.33,1316.17 1812.56,1316.61 1814.79,1317.04 1817.02,1317.48 
  1819.25,1317.91 1821.49,1318.35 1823.72,1318.79 1825.95,1319.22 1828.18,1319.66 1830.42,1320.1 1832.65,1320.53 1834.88,1320.97 1837.11,1321.4 1839.34,1321.84 
  1841.58,1322.27 1843.81,1322.71 1846.04,1323.14 1848.27,1323.58 1850.51,1324.01 1852.74,1324.45 1854.97,1324.88 1857.2,1325.32 1859.43,1325.75 1861.67,1326.18 
  1863.9,1326.62 1866.13,1327.05 1868.36,1327.49 1870.6,1327.92 1872.83,1328.35 1875.06,1328.79 1877.29,1329.22 1879.52,1329.65 1881.76,1330.08 1883.99,1330.52 
  1886.22,1330.95 1888.45,1331.38 1890.69,1331.81 1892.92,1332.25 1895.15,1332.68 1897.38,1333.11 1899.61,1333.54 1901.85,1333.97 1904.08,1334.41 1906.31,1334.84 
  1908.54,1335.27 1910.78,1335.7 1913.01,1336.13 1915.24,1336.56 1917.47,1336.99 1919.7,1337.42 1921.94,1337.85 1924.17,1338.28 1926.4,1338.71 1928.63,1339.14 
  1930.87,1339.57 1933.1,1340 1935.33,1340.43 1937.56,1340.86 1939.79,1341.29 1942.03,1341.72 1944.26,1342.15 1946.49,1342.58 1948.72,1343.01 1950.96,1343.44 
  1953.19,1343.87 1955.42,1344.29 1957.65,1344.72 1959.88,1345.15 1962.12,1345.58 1964.35,1346.01 1966.58,1346.43 1968.81,1346.86 1971.05,1347.29 1973.28,1347.72 
  1975.51,1348.14 1977.74,1348.57 1979.97,1349 1982.21,1349.43 1984.44,1349.85 1986.67,1350.28 1988.9,1350.7 1991.14,1351.13 1993.37,1351.56 1995.6,1351.98 
  1997.83,1352.41 2000.06,1352.84 2002.3,1353.26 2004.53,1353.69 2006.76,1354.11 2008.99,1354.54 2011.23,1354.96 2013.46,1355.39 2015.69,1355.81 2017.92,1356.24 
  2020.15,1356.66 2022.39,1357.09 2024.62,1357.51 2026.85,1357.93 2029.08,1358.36 2031.32,1358.78 2033.55,1359.21 2035.78,1359.63 2038.01,1360.05 2040.24,1360.48 
  2042.48,1360.9 2044.71,1361.32 2046.94,1361.75 2049.17,1362.17 2051.41,1362.59 2053.64,1363.02 2055.87,1363.44 2058.1,1363.86 2060.33,1364.28 2062.57,1364.7 
  2064.8,1365.13 2067.03,1365.55 2069.26,1365.97 2071.5,1366.39 2073.73,1366.81 2075.96,1367.23 2078.19,1367.66 2080.42,1368.08 2082.66,1368.5 2084.89,1368.92 
  2087.12,1369.34 2089.35,1369.76 2091.59,1370.18 2093.82,1370.6 2096.05,1371.02 2098.28,1371.44 2100.51,1371.86 2102.75,1372.28 2104.98,1372.7 2107.21,1373.12 
  2109.44,1373.54 2111.68,1373.96 2113.91,1374.38 2116.14,1374.79 2118.37,1375.21 2120.6,1375.63 2122.84,1376.05 2125.07,1376.47 2127.3,1376.89 2129.53,1377.31 
  2131.77,1377.72 2134,1378.14 2136.23,1378.56 2138.46,1378.98 2140.69,1379.39 2142.93,1379.81 2145.16,1380.23 2147.39,1380.64 2149.62,1381.06 2151.86,1381.48 
  2154.09,1381.9 2156.32,1382.31 2158.55,1382.73 2160.78,1383.14 2163.02,1383.56 2165.25,1383.98 2167.48,1384.39 2169.71,1384.81 2171.95,1385.22 2174.18,1385.64 
  2176.41,1386.05 2178.64,1386.47 2180.87,1386.88 2183.11,1387.3 2185.34,1387.71 2187.57,1388.13 2189.8,1388.54 2192.04,1388.96 2194.27,1389.37 2196.5,1389.79 
  2198.73,1390.2 2200.96,1390.61 2203.2,1391.03 2205.43,1391.44 2207.66,1391.85 2209.89,1392.27 2212.13,1392.68 2214.36,1393.09 2216.59,1393.51 2218.82,1393.92 
  2221.05,1394.33 2223.29,1394.74 2225.52,1395.16 2227.75,1395.57 2229.98,1395.98 2232.22,1396.39 2234.45,1396.8 2236.68,1397.22 2238.91,1397.63 2241.14,1398.04 
  2243.38,1398.45 2245.61,1398.86 2247.84,1399.27 2250.07,1399.68 2252.31,1400.09 2254.54,1400.5 2256.77,1400.91 2259,1401.33 2261.23,1401.74 2263.47,1402.15 
  2265.7,1402.56 2267.93,1402.97 2270.16,1403.37 2272.4,1403.78 2274.63,1404.19 2276.86,1404.6 2279.09,1405.01 2281.32,1405.42 2283.56,1405.83 2285.79,1406.24 
  2288.02,1406.65 2290.25,1407.06 2292.49,1407.46 2294.72,1407.87 2296.95,1408.28 2299.18,1408.69 2301.41,1409.1 2303.65,1409.5 2305.88,1409.91 2308.11,1410.32 
  2310.34,1410.73 2312.58,1411.13 2314.81,1411.54 2317.04,1411.95 2319.27,1412.35 2321.5,1412.76 2323.74,1413.17 2325.97,1413.57 2328.2,1413.98 2330.43,1414.38 
  2332.67,1414.79 2334.9,1415.2 2337.13,1415.6 2339.36,1416.01 2341.59,1416.41 2343.83,1416.82 2346.06,1417.22 2348.29,1417.63 2350.52,1418.03 2352.76,1418.44 
  
  "/>
<polyline clip-path="url(#clip2302)" style="stroke:#c271d2; stroke-width:12; stroke-opacity:1; fill:none" stroke-dasharray="48, 30" points="
  122.763,87.1818 124.995,89.1321 127.227,91.0806 129.459,93.0272 131.692,94.972 133.924,96.9149 136.156,98.8559 138.388,100.795 140.621,102.732 142.853,104.668 
  145.085,106.601 147.317,108.533 149.549,110.463 151.782,112.391 154.014,114.317 156.246,116.242 158.478,118.164 160.711,120.085 162.943,122.004 165.175,123.921 
  167.407,125.836 169.639,127.749 171.872,129.661 174.104,131.571 176.336,133.479 178.568,135.385 180.801,137.289 183.033,139.191 185.265,141.092 187.497,142.991 
  189.729,144.888 191.962,146.783 194.194,148.677 196.426,150.568 198.658,152.458 200.891,154.346 203.123,156.233 205.355,158.117 207.587,160 209.82,161.881 
  212.052,163.76 214.284,165.637 216.516,167.513 218.748,169.387 220.981,171.259 223.213,173.129 225.445,174.997 227.677,176.864 229.91,178.729 232.142,180.592 
  234.374,182.454 236.606,184.314 238.838,186.172 241.071,188.028 243.303,189.882 245.535,191.735 247.767,193.586 250,195.435 252.232,197.283 254.464,199.128 
  256.696,200.972 258.928,202.815 261.161,204.655 263.393,206.494 265.625,208.331 267.857,210.166 270.09,212 272.322,213.832 274.554,215.662 276.786,217.491 
  279.019,219.318 281.251,221.143 283.483,222.966 285.715,224.788 287.947,226.608 290.18,228.426 292.412,230.242 294.644,232.057 296.876,233.87 299.109,235.682 
  301.341,237.492 303.573,239.3 305.805,241.106 308.037,242.911 310.27,244.714 312.502,246.515 314.734,248.315 316.966,250.113 319.199,251.909 321.431,253.704 
  323.663,255.497 325.895,257.288 328.127,259.078 330.36,260.866 332.592,262.652 334.824,264.437 337.056,266.22 339.289,268.002 341.521,269.781 343.753,271.559 
  345.985,273.336 348.217,275.111 350.45,276.884 352.682,278.655 354.914,280.425 357.146,282.193 359.379,283.96 361.611,285.725 363.843,287.488 366.075,289.25 
  368.308,291.01 370.54,292.769 372.772,294.525 375.004,296.281 377.236,298.034 379.469,299.786 381.701,301.537 383.933,303.285 386.165,305.033 388.398,306.778 
  390.63,308.522 392.862,310.264 395.094,312.005 397.326,313.744 399.559,315.482 401.791,317.218 404.023,318.952 406.255,320.685 408.488,322.416 410.72,324.146 
  412.952,325.874 415.184,327.6 417.416,329.325 419.649,331.048 421.881,332.77 424.113,334.49 426.345,336.209 428.578,337.926 430.81,339.641 433.042,341.355 
  435.274,343.067 437.507,344.778 439.739,346.487 441.971,348.195 444.203,349.901 446.435,351.605 448.668,353.308 450.9,355.009 453.132,356.709 455.364,358.407 
  457.597,360.104 459.829,361.799 462.061,363.493 464.293,365.185 466.525,366.876 468.758,368.565 470.99,370.252 473.222,371.938 475.454,373.623 477.687,375.306 
  479.919,376.987 482.151,378.667 484.383,380.345 486.615,382.022 488.848,383.698 491.08,385.371 493.312,387.044 495.544,388.714 497.777,390.384 500.009,392.052 
  502.241,393.718 504.473,395.383 506.705,397.046 508.938,398.708 511.17,400.368 513.402,402.027 515.634,403.684 517.867,405.34 520.099,406.994 522.331,408.647 
  524.563,410.298 526.796,411.948 529.028,413.596 531.26,415.243 533.492,416.888 535.724,418.532 537.957,420.175 540.189,421.816 542.421,423.455 544.653,425.093 
  546.886,426.73 549.118,428.365 551.35,429.998 553.582,431.631 555.814,433.261 558.047,434.891 560.279,436.518 562.511,438.145 564.743,439.77 566.976,441.393 
  569.208,443.015 571.44,444.635 573.672,446.254 575.904,447.872 578.137,449.488 580.369,451.103 582.601,452.716 584.833,454.328 587.066,455.939 589.298,457.548 
  591.53,459.155 593.762,460.761 595.995,462.366 598.227,463.969 600.459,465.571 602.691,467.172 604.923,468.771 607.156,470.368 609.388,471.964 611.62,473.559 
  613.852,475.152 616.085,476.744 618.317,478.335 620.549,479.924 622.781,481.512 625.013,483.098 627.246,484.683 629.478,486.266 631.71,487.848 633.942,489.429 
  636.175,491.008 638.407,492.586 640.639,494.163 642.871,495.738 645.103,497.312 647.336,498.884 649.568,500.455 651.8,502.024 654.032,503.593 656.265,505.159 
  658.497,506.725 660.729,508.289 662.961,509.851 665.193,511.413 667.426,512.973 669.658,514.531 671.89,516.088 674.122,517.644 676.355,519.198 678.587,520.751 
  680.819,522.303 683.051,523.854 685.284,525.402 687.516,526.95 689.748,528.496 691.98,530.041 694.212,531.585 696.445,533.127 698.677,534.668 700.909,536.207 
  703.141,537.745 705.374,539.282 707.606,540.818 709.838,542.352 712.07,543.885 714.302,545.416 716.535,546.946 718.767,548.475 720.999,550.002 723.231,551.528 
  725.464,553.053 727.696,554.577 729.928,556.099 732.16,557.62 734.392,559.139 736.625,560.657 738.857,562.174 741.089,563.69 743.321,565.204 745.554,566.717 
  747.786,568.228 750.018,569.738 752.25,571.247 754.483,572.755 756.715,574.261 758.947,575.766 761.179,577.27 763.411,578.772 765.644,580.274 767.876,581.773 
  770.108,583.272 772.34,584.769 774.573,586.265 776.805,587.76 779.037,589.253 781.269,590.745 783.501,592.236 785.734,593.725 787.966,595.213 790.198,596.7 
  792.43,598.186 794.663,599.67 796.895,601.153 799.127,602.635 801.359,604.115 803.591,605.595 805.824,607.073 808.056,608.549 810.288,610.025 812.52,611.499 
  814.753,612.972 816.985,614.443 819.217,615.914 821.449,617.383 823.682,618.85 825.914,620.317 828.146,621.782 830.378,623.246 832.61,624.709 834.843,626.171 
  837.075,627.631 839.307,629.09 841.539,630.548 843.772,632.004 846.004,633.459 848.236,634.914 850.468,636.366 852.7,637.818 854.933,639.268 857.165,640.717 
  859.397,642.165 861.629,643.612 863.862,645.057 866.094,646.501 868.326,647.944 870.558,649.386 872.79,650.826 875.023,652.265 877.255,653.703 879.487,655.14 
  881.719,656.576 883.952,658.01 886.184,659.443 888.416,660.875 890.648,662.305 892.88,663.735 895.113,665.163 897.345,666.59 899.577,668.016 901.809,669.441 
  904.042,670.864 906.274,672.286 908.506,673.707 910.738,675.127 912.971,676.545 915.203,677.963 917.435,679.379 919.667,680.794 921.899,682.208 924.132,683.62 
  926.364,685.032 928.596,686.442 930.828,687.851 933.061,689.259 935.293,690.665 937.525,692.071 939.757,693.475 941.989,694.878 944.222,696.28 946.454,697.681 
  948.686,699.08 950.918,700.478 953.151,701.876 955.383,703.272 957.615,704.666 959.847,706.06 962.079,707.453 964.312,708.844 966.544,710.234 968.776,711.623 
  971.008,713.011 973.241,714.397 975.473,715.783 977.705,717.167 979.937,718.55 982.17,719.932 984.402,721.313 986.634,722.693 988.866,724.071 991.098,725.449 
  993.331,726.825 995.563,728.2 997.795,729.574 1000.03,730.947 1002.26,732.318 1004.49,733.689 1006.72,735.058 1008.96,736.426 1011.19,737.793 1013.42,739.159 
  1015.65,740.524 1017.89,741.888 1020.12,743.25 1022.35,744.611 1024.58,745.972 1026.81,747.331 1029.05,748.689 1031.28,750.046 1033.51,751.401 1035.74,752.756 
  1037.98,754.109 1040.21,755.462 1042.44,756.813 1044.67,758.163 1046.9,759.512 1049.14,760.86 1051.37,762.206 1053.6,763.552 1055.83,764.897 1058.07,766.24 
  1060.3,767.582 1062.53,768.923 1064.76,770.263 1066.99,771.602 1069.23,772.94 1071.46,774.277 1073.69,775.613 1075.92,776.947 1078.16,778.28 1080.39,779.613 
  1082.62,780.944 1084.85,782.274 1087.08,783.603 1089.32,784.931 1091.55,786.258 1093.78,787.584 1096.01,788.908 1098.25,790.232 1100.48,791.554 1102.71,792.876 
  1104.94,794.196 1107.17,795.515 1109.41,796.833 1111.64,798.15 1113.87,799.466 1116.1,800.781 1118.34,802.095 1120.57,803.408 1122.8,804.719 1125.03,806.03 
  1127.26,807.339 1129.5,808.648 1131.73,809.955 1133.96,811.261 1136.19,812.567 1138.43,813.871 1140.66,815.174 1142.89,816.476 1145.12,817.777 1147.35,819.077 
  1149.59,820.375 1151.82,821.673 1154.05,822.97 1156.28,824.265 1158.52,825.56 1160.75,826.854 1162.98,828.146 1165.21,829.437 1167.44,830.728 1169.68,832.017 
  1171.91,833.305 1174.14,834.593 1176.37,835.879 1178.61,837.164 1180.84,838.448 1183.07,839.731 1185.3,841.013 1187.53,842.294 1189.77,843.574 1192,844.853 
  1194.23,846.13 1196.46,847.407 1198.7,848.683 1200.93,849.958 1203.16,851.231 1205.39,852.504 1207.62,853.776 1209.86,855.046 1212.09,856.316 1214.32,857.584 
  1216.55,858.852 1218.79,860.118 1221.02,861.384 1223.25,862.648 1225.48,863.911 1227.71,865.174 1229.95,866.435 1232.18,867.696 1234.41,868.955 1236.64,870.213 
  1238.88,871.47 1241.11,872.727 1243.34,873.982 1245.57,875.236 1247.8,876.49 1250.04,877.742 1252.27,878.993 1254.5,880.243 1256.73,881.492 1258.97,882.741 
  1261.2,883.988 1263.43,885.234 1265.66,886.479 1267.89,887.723 1270.13,888.967 1272.36,890.209 1274.59,891.45 1276.82,892.69 1279.06,893.93 1281.29,895.168 
  1283.52,896.405 1285.75,897.641 1287.98,898.877 1290.22,900.111 1292.45,901.344 1294.68,902.576 1296.91,903.808 1299.15,905.038 1301.38,906.267 1303.61,907.496 
  1305.84,908.723 1308.07,909.949 1310.31,911.175 1312.54,912.399 1314.77,913.623 1317,914.845 1319.24,916.067 1321.47,917.287 1323.7,918.507 1325.93,919.725 
  1328.16,920.943 1330.4,922.16 1332.63,923.375 1334.86,924.59 1337.09,925.804 1339.33,927.017 1341.56,928.229 1343.79,929.439 1346.02,930.649 1348.25,931.858 
  1350.49,933.066 1352.72,934.273 1354.95,935.479 1357.18,936.684 1359.42,937.889 1361.65,939.092 1363.88,940.294 1366.11,941.495 1368.34,942.696 1370.58,943.895 
  1372.81,945.094 1375.04,946.291 1377.27,947.488 1379.51,948.683 1381.74,949.878 1383.97,951.072 1386.2,952.264 1388.43,953.456 1390.67,954.647 1392.9,955.837 
  1395.13,957.026 1397.36,958.214 1399.6,959.401 1401.83,960.587 1404.06,961.773 1406.29,962.957 1408.52,964.14 1410.76,965.323 1412.99,966.504 1415.22,967.685 
  1417.45,968.865 1419.69,970.044 1421.92,971.221 1424.15,972.398 1426.38,973.574 1428.61,974.749 1430.85,975.924 1433.08,977.097 1435.31,978.269 1437.54,979.44 
  1439.78,980.611 1442.01,981.78 1444.24,982.949 1446.47,984.117 1448.7,985.284 1450.94,986.449 1453.17,987.614 1455.4,988.779 1457.63,989.942 1459.87,991.104 
  1462.1,992.265 1464.33,993.426 1466.56,994.585 1468.79,995.744 1471.03,996.902 1473.26,998.058 1475.49,999.214 1477.72,1000.37 1479.96,1001.52 1482.19,1002.68 
  1484.42,1003.83 1486.65,1004.98 1488.88,1006.13 1491.12,1007.28 1493.35,1008.43 1495.58,1009.58 1497.81,1010.72 1500.05,1011.87 1502.28,1013.02 1504.51,1014.16 
  1506.74,1015.3 1508.97,1016.45 1511.21,1017.59 1513.44,1018.73 1515.67,1019.87 1517.9,1021.01 1520.14,1022.14 1522.37,1023.28 1524.6,1024.42 1526.83,1025.55 
  1529.06,1026.69 1531.3,1027.82 1533.53,1028.95 1535.76,1030.09 1537.99,1031.22 1540.23,1032.35 1542.46,1033.48 1544.69,1034.61 1546.92,1035.73 1549.15,1036.86 
  1551.39,1037.99 1553.62,1039.11 1555.85,1040.24 1558.08,1041.36 1560.32,1042.48 1562.55,1043.6 1564.78,1044.72 1567.01,1045.84 1569.24,1046.96 1571.48,1048.08 
  1573.71,1049.2 1575.94,1050.31 1578.17,1051.43 1580.41,1052.54 1582.64,1053.66 1584.87,1054.77 1587.1,1055.88 1589.33,1056.99 1591.57,1058.1 1593.8,1059.21 
  1596.03,1060.32 1598.26,1061.43 1600.5,1062.54 1602.73,1063.64 1604.96,1064.75 1607.19,1065.85 1609.42,1066.96 1611.66,1068.06 1613.89,1069.16 1616.12,1070.26 
  1618.35,1071.36 1620.59,1072.46 1622.82,1073.56 1625.05,1074.66 1627.28,1075.75 1629.51,1076.85 1631.75,1077.95 1633.98,1079.04 1636.21,1080.13 1638.44,1081.23 
  1640.68,1082.32 1642.91,1083.41 1645.14,1084.5 1647.37,1085.59 1649.6,1086.68 1651.84,1087.77 1654.07,1088.85 1656.3,1089.94 1658.53,1091.02 1660.77,1092.11 
  1663,1093.19 1665.23,1094.27 1667.46,1095.36 1669.69,1096.44 1671.93,1097.52 1674.16,1098.6 1676.39,1099.68 1678.62,1100.75 1680.86,1101.83 1683.09,1102.91 
  1685.32,1103.98 1687.55,1105.06 1689.78,1106.13 1692.02,1107.2 1694.25,1108.28 1696.48,1109.35 1698.71,1110.42 1700.95,1111.49 1703.18,1112.56 1705.41,1113.62 
  1707.64,1114.69 1709.87,1115.76 1712.11,1116.82 1714.34,1117.89 1716.57,1118.95 1718.8,1120.02 1721.04,1121.08 1723.27,1122.14 1725.5,1123.2 1727.73,1124.26 
  1729.97,1125.32 1732.2,1126.38 1734.43,1127.44 1736.66,1128.49 1738.89,1129.55 1741.13,1130.61 1743.36,1131.66 1745.59,1132.71 1747.82,1133.77 1750.06,1134.82 
  1752.29,1135.87 1754.52,1136.92 1756.75,1137.97 1758.98,1139.02 1761.22,1140.07 1763.45,1141.11 1765.68,1142.16 1767.91,1143.21 1770.15,1144.25 1772.38,1145.3 
  1774.61,1146.34 1776.84,1147.38 1779.07,1148.43 1781.31,1149.47 1783.54,1150.51 1785.77,1151.55 1788,1152.59 1790.24,1153.62 1792.47,1154.66 1794.7,1155.7 
  1796.93,1156.73 1799.16,1157.77 1801.4,1158.8 1803.63,1159.84 1805.86,1160.87 1808.09,1161.9 1810.33,1162.93 1812.56,1163.96 1814.79,1164.99 1817.02,1166.02 
  1819.25,1167.05 1821.49,1168.08 1823.72,1169.1 1825.95,1170.13 1828.18,1171.15 1830.42,1172.18 1832.65,1173.2 1834.88,1174.22 1837.11,1175.25 1839.34,1176.27 
  1841.58,1177.29 1843.81,1178.31 1846.04,1179.33 1848.27,1180.34 1850.51,1181.36 1852.74,1182.38 1854.97,1183.39 1857.2,1184.41 1859.43,1185.42 1861.67,1186.44 
  1863.9,1187.45 1866.13,1188.46 1868.36,1189.47 1870.6,1190.49 1872.83,1191.5 1875.06,1192.5 1877.29,1193.51 1879.52,1194.52 1881.76,1195.53 1883.99,1196.53 
  1886.22,1197.54 1888.45,1198.54 1890.69,1199.55 1892.92,1200.55 1895.15,1201.55 1897.38,1202.56 1899.61,1203.56 1901.85,1204.56 1904.08,1205.56 1906.31,1206.56 
  1908.54,1207.55 1910.78,1208.55 1913.01,1209.55 1915.24,1210.54 1917.47,1211.54 1919.7,1212.53 1921.94,1213.53 1924.17,1214.52 1926.4,1215.51 1928.63,1216.51 
  1930.87,1217.5 1933.1,1218.49 1935.33,1219.48 1937.56,1220.46 1939.79,1221.45 1942.03,1222.44 1944.26,1223.43 1946.49,1224.41 1948.72,1225.4 1950.96,1226.38 
  1953.19,1227.37 1955.42,1228.35 1957.65,1229.33 1959.88,1230.31 1962.12,1231.29 1964.35,1232.27 1966.58,1233.25 1968.81,1234.23 1971.05,1235.21 1973.28,1236.19 
  1975.51,1237.16 1977.74,1238.14 1979.97,1239.11 1982.21,1240.09 1984.44,1241.06 1986.67,1242.03 1988.9,1243.01 1991.14,1243.98 1993.37,1244.95 1995.6,1245.92 
  1997.83,1246.89 2000.06,1247.86 2002.3,1248.83 2004.53,1249.79 2006.76,1250.76 2008.99,1251.73 2011.23,1252.69 2013.46,1253.66 2015.69,1254.62 2017.92,1255.58 
  2020.15,1256.55 2022.39,1257.51 2024.62,1258.47 2026.85,1259.43 2029.08,1260.39 2031.32,1261.35 2033.55,1262.31 2035.78,1263.26 2038.01,1264.22 2040.24,1265.18 
  2042.48,1266.13 2044.71,1267.09 2046.94,1268.04 2049.17,1268.99 2051.41,1269.95 2053.64,1270.9 2055.87,1271.85 2058.1,1272.8 2060.33,1273.75 2062.57,1274.7 
  2064.8,1275.65 2067.03,1276.6 2069.26,1277.55 2071.5,1278.49 2073.73,1279.44 2075.96,1280.38 2078.19,1281.33 2080.42,1282.27 2082.66,1283.21 2084.89,1284.16 
  2087.12,1285.1 2089.35,1286.04 2091.59,1286.98 2093.82,1287.92 2096.05,1288.86 2098.28,1289.8 2100.51,1290.74 2102.75,1291.67 2104.98,1292.61 2107.21,1293.55 
  2109.44,1294.48 2111.68,1295.42 2113.91,1296.35 2116.14,1297.28 2118.37,1298.22 2120.6,1299.15 2122.84,1300.08 2125.07,1301.01 2127.3,1301.94 2129.53,1302.87 
  2131.77,1303.8 2134,1304.72 2136.23,1305.65 2138.46,1306.58 2140.69,1307.5 2142.93,1308.43 2145.16,1309.35 2147.39,1310.28 2149.62,1311.2 2151.86,1312.12 
  2154.09,1313.05 2156.32,1313.97 2158.55,1314.89 2160.78,1315.81 2163.02,1316.73 2165.25,1317.65 2167.48,1318.56 2169.71,1319.48 2171.95,1320.4 2174.18,1321.31 
  2176.41,1322.23 2178.64,1323.14 2180.87,1324.06 2183.11,1324.97 2185.34,1325.89 2187.57,1326.8 2189.8,1327.71 2192.04,1328.62 2194.27,1329.53 2196.5,1330.44 
  2198.73,1331.35 2200.96,1332.26 2203.2,1333.17 2205.43,1334.07 2207.66,1334.98 2209.89,1335.88 2212.13,1336.79 2214.36,1337.69 2216.59,1338.6 2218.82,1339.5 
  2221.05,1340.4 2223.29,1341.31 2225.52,1342.21 2227.75,1343.11 2229.98,1344.01 2232.22,1344.91 2234.45,1345.81 2236.68,1346.7 2238.91,1347.6 2241.14,1348.5 
  2243.38,1349.4 2245.61,1350.29 2247.84,1351.19 2250.07,1352.08 2252.31,1352.97 2254.54,1353.87 2256.77,1354.76 2259,1355.65 2261.23,1356.54 2263.47,1357.43 
  2265.7,1358.32 2267.93,1359.21 2270.16,1360.1 2272.4,1360.99 2274.63,1361.88 2276.86,1362.77 2279.09,1363.65 2281.32,1364.54 2283.56,1365.42 2285.79,1366.31 
  2288.02,1367.19 2290.25,1368.07 2292.49,1368.96 2294.72,1369.84 2296.95,1370.72 2299.18,1371.6 2301.41,1372.48 2303.65,1373.36 2305.88,1374.24 2308.11,1375.12 
  2310.34,1376 2312.58,1376.87 2314.81,1377.75 2317.04,1378.62 2319.27,1379.5 2321.5,1380.37 2323.74,1381.25 2325.97,1382.12 2328.2,1383 2330.43,1383.87 
  2332.67,1384.74 2334.9,1385.61 2337.13,1386.48 2339.36,1387.35 2341.59,1388.22 2343.83,1389.09 2346.06,1389.96 2348.29,1390.82 2350.52,1391.69 2352.76,1392.56 
  
  "/>
<polygon clip-path="url(#clip2300)" points="
1850.87,433.164 2280.76,433.164 2280.76,130.764 1850.87,130.764 
  " fill="#ffffff" fill-rule="evenodd" fill-opacity="1"/>
<polyline clip-path="url(#clip2300)" style="stroke:#000000; stroke-width:4; stroke-opacity:1; fill:none" points="
  1850.87,433.164 2280.76,433.164 2280.76,130.764 1850.87,130.764 1850.87,433.164 
  "/>
<polyline clip-path="url(#clip2300)" style="stroke:#009af9; stroke-width:4; stroke-opacity:1; fill:none" points="
  1874.87,191.244 2018.87,191.244 
  "/>
<g clip-path="url(#clip2300)">
<text style="fill:#000000; fill-opacity:1; font-family:Arial,Helvetica Neue,Helvetica,sans-serif; font-size:48px; text-anchor:start;" transform="rotate(0, 2042.87, 208.744)" x="2042.87" y="208.744">QuLDE()</text>
</g>
<polyline clip-path="url(#clip2300)" style="stroke:#e26f46; stroke-width:4; stroke-opacity:1; fill:none" points="
  1874.87,251.724 2018.87,251.724 
  "/>
<g clip-path="url(#clip2300)">
<text style="fill:#000000; fill-opacity:1; font-family:Arial,Helvetica Neue,Helvetica,sans-serif; font-size:48px; text-anchor:start;" transform="rotate(0, 2042.87, 269.224)" x="2042.87" y="269.224">QuLDE()</text>
</g>
<polyline clip-path="url(#clip2300)" style="stroke:#3da44d; stroke-width:12; stroke-opacity:1; fill:none" stroke-dasharray="48, 30" points="
  1874.87,312.204 2018.87,312.204 
  "/>
<g clip-path="url(#clip2300)">
<text style="fill:#000000; fill-opacity:1; font-family:Arial,Helvetica Neue,Helvetica,sans-serif; font-size:48px; text-anchor:start;" transform="rotate(0, 2042.87, 329.704)" x="2042.87" y="329.704">Tsit5()</text>
</g>
<polyline clip-path="url(#clip2300)" style="stroke:#c271d2; stroke-width:12; stroke-opacity:1; fill:none" stroke-dasharray="48, 30" points="
  1874.87,372.684 2018.87,372.684 
  "/>
<g clip-path="url(#clip2300)">
<text style="fill:#000000; fill-opacity:1; font-family:Arial,Helvetica Neue,Helvetica,sans-serif; font-size:48px; text-anchor:start;" transform="rotate(0, 2042.87, 390.184)" x="2042.87" y="390.184">Tsit5()</text>
</g>
</svg>
