<?xml version="1.0" encoding="utf-8"?>
<svg xmlns="http://www.w3.org/2000/svg" xmlns:xlink="http://www.w3.org/1999/xlink" width="600" height="400" viewBox="0 0 2400 1600">
<defs>
  <clipPath id="clip2000">
    <rect x="0" y="0" width="2400" height="1600"/>
  </clipPath>
</defs>
<polygon clip-path="url(#clip2000)" points="
0,1600 2400,1600 2400,0 0,0 
  " fill="#ffffff" fill-rule="evenodd" fill-opacity="1"/>
<defs>
  <clipPath id="clip2001">
    <rect x="480" y="0" width="1681" height="1600"/>
  </clipPath>
</defs>
<polygon clip-path="url(#clip2000)" points="
122.763,1458.38 2352.76,1458.38 2352.76,47.2441 122.763,47.2441 
  " fill="#ffffff" fill-rule="evenodd" fill-opacity="1"/>
<defs>
  <clipPath id="clip2002">
    <rect x="122" y="47" width="2231" height="1412"/>
  </clipPath>
</defs>
<polyline clip-path="url(#clip2002)" style="stroke:#000000; stroke-width:2; stroke-opacity:0.1; fill:none" points="
  122.763,1458.38 122.763,47.2441 
  "/>
<polyline clip-path="url(#clip2002)" style="stroke:#000000; stroke-width:2; stroke-opacity:0.1; fill:none" points="
  680.261,1458.38 680.261,47.2441 
  "/>
<polyline clip-path="url(#clip2002)" style="stroke:#000000; stroke-width:2; stroke-opacity:0.1; fill:none" points="
  1237.76,1458.38 1237.76,47.2441 
  "/>
<polyline clip-path="url(#clip2002)" style="stroke:#000000; stroke-width:2; stroke-opacity:0.1; fill:none" points="
  1795.26,1458.38 1795.26,47.2441 
  "/>
<polyline clip-path="url(#clip2002)" style="stroke:#000000; stroke-width:2; stroke-opacity:0.1; fill:none" points="
  2352.76,1458.38 2352.76,47.2441 
  "/>
<polyline clip-path="url(#clip2002)" style="stroke:#000000; stroke-width:2; stroke-opacity:0.1; fill:none" points="
  122.763,1322.77 2352.76,1322.77 
  "/>
<polyline clip-path="url(#clip2002)" style="stroke:#000000; stroke-width:2; stroke-opacity:0.1; fill:none" points="
  122.763,910.906 2352.76,910.906 
  "/>
<polyline clip-path="url(#clip2002)" style="stroke:#000000; stroke-width:2; stroke-opacity:0.1; fill:none" points="
  122.763,499.044 2352.76,499.044 
  "/>
<polyline clip-path="url(#clip2002)" style="stroke:#000000; stroke-width:2; stroke-opacity:0.1; fill:none" points="
  122.763,87.1818 2352.76,87.1818 
  "/>
<polyline clip-path="url(#clip2000)" style="stroke:#000000; stroke-width:4; stroke-opacity:1; fill:none" points="
  122.763,1458.38 2352.76,1458.38 
  "/>
<polyline clip-path="url(#clip2000)" style="stroke:#000000; stroke-width:4; stroke-opacity:1; fill:none" points="
  122.763,1458.38 122.763,47.2441 
  "/>
<polyline clip-path="url(#clip2000)" style="stroke:#000000; stroke-width:4; stroke-opacity:1; fill:none" points="
  122.763,1458.38 122.763,1437.21 
  "/>
<polyline clip-path="url(#clip2000)" style="stroke:#000000; stroke-width:4; stroke-opacity:1; fill:none" points="
  680.261,1458.38 680.261,1437.21 
  "/>
<polyline clip-path="url(#clip2000)" style="stroke:#000000; stroke-width:4; stroke-opacity:1; fill:none" points="
  1237.76,1458.38 1237.76,1437.21 
  "/>
<polyline clip-path="url(#clip2000)" style="stroke:#000000; stroke-width:4; stroke-opacity:1; fill:none" points="
  1795.26,1458.38 1795.26,1437.21 
  "/>
<polyline clip-path="url(#clip2000)" style="stroke:#000000; stroke-width:4; stroke-opacity:1; fill:none" points="
  2352.76,1458.38 2352.76,1437.21 
  "/>
<polyline clip-path="url(#clip2000)" style="stroke:#000000; stroke-width:4; stroke-opacity:1; fill:none" points="
  122.763,1322.77 156.213,1322.77 
  "/>
<polyline clip-path="url(#clip2000)" style="stroke:#000000; stroke-width:4; stroke-opacity:1; fill:none" points="
  122.763,910.906 156.213,910.906 
  "/>
<polyline clip-path="url(#clip2000)" style="stroke:#000000; stroke-width:4; stroke-opacity:1; fill:none" points="
  122.763,499.044 156.213,499.044 
  "/>
<polyline clip-path="url(#clip2000)" style="stroke:#000000; stroke-width:4; stroke-opacity:1; fill:none" points="
  122.763,87.1818 156.213,87.1818 
  "/>
<g clip-path="url(#clip2000)">
<text style="fill:#000000; fill-opacity:1; font-family:Arial,Helvetica Neue,Helvetica,sans-serif; font-size:48px; text-anchor:middle;" transform="rotate(0, 122.763, 1512.38)" x="122.763" y="1512.38">0.0</text>
</g>
<g clip-path="url(#clip2000)">
<text style="fill:#000000; fill-opacity:1; font-family:Arial,Helvetica Neue,Helvetica,sans-serif; font-size:48px; text-anchor:middle;" transform="rotate(0, 680.261, 1512.38)" x="680.261" y="1512.38">0.1</text>
</g>
<g clip-path="url(#clip2000)">
<text style="fill:#000000; fill-opacity:1; font-family:Arial,Helvetica Neue,Helvetica,sans-serif; font-size:48px; text-anchor:middle;" transform="rotate(0, 1237.76, 1512.38)" x="1237.76" y="1512.38">0.2</text>
</g>
<g clip-path="url(#clip2000)">
<text style="fill:#000000; fill-opacity:1; font-family:Arial,Helvetica Neue,Helvetica,sans-serif; font-size:48px; text-anchor:middle;" transform="rotate(0, 1795.26, 1512.38)" x="1795.26" y="1512.38">0.3</text>
</g>
<g clip-path="url(#clip2000)">
<text style="fill:#000000; fill-opacity:1; font-family:Arial,Helvetica Neue,Helvetica,sans-serif; font-size:48px; text-anchor:middle;" transform="rotate(0, 2352.76, 1512.38)" x="2352.76" y="1512.38">0.4</text>
</g>
<g clip-path="url(#clip2000)">
<text style="fill:#000000; fill-opacity:1; font-family:Arial,Helvetica Neue,Helvetica,sans-serif; font-size:48px; text-anchor:end;" transform="rotate(0, 98.7627, 1340.27)" x="98.7627" y="1340.27">0.5</text>
</g>
<g clip-path="url(#clip2000)">
<text style="fill:#000000; fill-opacity:1; font-family:Arial,Helvetica Neue,Helvetica,sans-serif; font-size:48px; text-anchor:end;" transform="rotate(0, 98.7627, 928.406)" x="98.7627" y="928.406">0.6</text>
</g>
<g clip-path="url(#clip2000)">
<text style="fill:#000000; fill-opacity:1; font-family:Arial,Helvetica Neue,Helvetica,sans-serif; font-size:48px; text-anchor:end;" transform="rotate(0, 98.7627, 516.544)" x="98.7627" y="516.544">0.7</text>
</g>
<g clip-path="url(#clip2000)">
<text style="fill:#000000; fill-opacity:1; font-family:Arial,Helvetica Neue,Helvetica,sans-serif; font-size:48px; text-anchor:end;" transform="rotate(0, 98.7627, 104.682)" x="98.7627" y="104.682">0.8</text>
</g>
<g clip-path="url(#clip2000)">
<text style="fill:#000000; fill-opacity:1; font-family:Arial,Helvetica Neue,Helvetica,sans-serif; font-size:66px; text-anchor:middle;" transform="rotate(0, 1237.76, 1592.24)" x="1237.76" y="1592.24">t</text>
</g>
<polyline clip-path="url(#clip2002)" style="stroke:#009af9; stroke-width:4; stroke-opacity:1; fill:none" points="
  122.763,910.906 680.261,1026.23 1237.76,1147.13 1795.26,1263.3 2352.76,1370.97 
  "/>
<polyline clip-path="url(#clip2002)" style="stroke:#e26f46; stroke-width:4; stroke-opacity:1; fill:none" points="
  122.763,87.1818 680.261,548.466 1237.76,905.5 1795.26,1188.81 2352.76,1418.44 
  "/>
<polyline clip-path="url(#clip2002)" style="stroke:#3da44d; stroke-width:12; stroke-opacity:1; fill:none" stroke-dasharray="48, 30" points="
  122.763,910.906 124.995,911.367 127.227,911.829 129.459,912.29 131.692,912.751 133.924,913.212 136.156,913.673 138.388,914.134 140.621,914.594 142.853,915.054 
  145.085,915.515 147.317,915.975 149.549,916.434 151.782,916.894 154.014,917.354 156.246,917.813 158.478,918.272 160.711,918.731 162.943,919.19 165.175,919.649 
  167.407,920.108 169.639,920.566 171.872,921.025 174.104,921.483 176.336,921.941 178.568,922.399 180.801,922.857 183.033,923.315 185.265,923.772 187.497,924.23 
  189.729,924.687 191.962,925.145 194.194,925.602 196.426,926.059 198.658,926.516 200.891,926.973 203.123,927.429 205.355,927.886 207.587,928.343 209.82,928.799 
  212.052,929.255 214.284,929.712 216.516,930.168 218.748,930.624 220.981,931.08 223.213,931.536 225.445,931.992 227.677,932.447 229.91,932.903 232.142,933.359 
  234.374,933.814 236.606,934.27 238.838,934.725 241.071,935.18 243.303,935.636 245.535,936.091 247.767,936.546 250,937.001 252.232,937.456 254.464,937.911 
  256.696,938.366 258.928,938.821 261.161,939.275 263.393,939.73 265.625,940.185 267.857,940.64 270.09,941.094 272.322,941.549 274.554,942.003 276.786,942.458 
  279.019,942.912 281.251,943.367 283.483,943.821 285.715,944.276 287.947,944.73 290.18,945.185 292.412,945.639 294.644,946.093 296.876,946.548 299.109,947.002 
  301.341,947.456 303.573,947.911 305.805,948.365 308.037,948.819 310.27,949.273 312.502,949.728 314.734,950.182 316.966,950.636 319.199,951.091 321.431,951.545 
  323.663,951.999 325.895,952.454 328.127,952.908 330.36,953.362 332.592,953.817 334.824,954.271 337.056,954.726 339.289,955.18 341.521,955.635 343.753,956.089 
  345.985,956.544 348.217,956.998 350.45,957.453 352.682,957.908 354.914,958.363 357.146,958.817 359.379,959.272 361.611,959.727 363.843,960.182 366.075,960.637 
  368.308,961.092 370.54,961.547 372.772,962.002 375.004,962.457 377.236,962.913 379.469,963.368 381.701,963.824 383.933,964.279 386.165,964.735 388.398,965.19 
  390.63,965.646 392.862,966.102 395.094,966.558 397.326,967.014 399.559,967.47 401.791,967.926 404.023,968.382 406.255,968.838 408.488,969.295 410.72,969.751 
  412.952,970.208 415.184,970.664 417.416,971.121 419.649,971.578 421.881,972.035 424.113,972.492 426.345,972.949 428.578,973.407 430.81,973.864 433.042,974.322 
  435.274,974.78 437.507,975.237 439.739,975.695 441.971,976.153 444.203,976.612 446.435,977.07 448.668,977.528 450.9,977.987 453.132,978.446 455.364,978.905 
  457.597,979.364 459.829,979.823 462.061,980.282 464.293,980.742 466.525,981.201 468.758,981.661 470.99,982.121 473.222,982.581 475.454,983.041 477.687,983.501 
  479.919,983.962 482.151,984.423 484.383,984.884 486.615,985.345 488.848,985.806 491.08,986.267 493.312,986.729 495.544,987.191 497.777,987.653 500.009,988.115 
  502.241,988.577 504.473,989.039 506.705,989.502 508.938,989.965 511.17,990.428 513.402,990.891 515.634,991.355 517.867,991.818 520.099,992.282 522.331,992.746 
  524.563,993.21 526.796,993.675 529.028,994.14 531.26,994.604 533.492,995.07 535.724,995.535 537.957,996 540.189,996.466 542.421,996.932 544.653,997.398 
  546.886,997.865 549.118,998.331 551.35,998.798 553.582,999.265 555.814,999.733 558.047,1000.2 560.279,1000.67 562.511,1001.14 564.743,1001.6 566.976,1002.07 
  569.208,1002.54 571.44,1003.01 573.672,1003.48 575.904,1003.95 578.137,1004.42 580.369,1004.89 582.601,1005.36 584.833,1005.83 587.066,1006.3 589.298,1006.77 
  591.53,1007.24 593.762,1007.72 595.995,1008.19 598.227,1008.66 600.459,1009.13 602.691,1009.61 604.923,1010.08 607.156,1010.55 609.388,1011.03 611.62,1011.5 
  613.852,1011.97 616.085,1012.45 618.317,1012.92 620.549,1013.4 622.781,1013.87 625.013,1014.35 627.246,1014.83 629.478,1015.3 631.71,1015.78 633.942,1016.26 
  636.175,1016.73 638.407,1017.21 640.639,1017.69 642.871,1018.17 645.103,1018.65 647.336,1019.12 649.568,1019.6 651.8,1020.08 654.032,1020.56 656.265,1021.04 
  658.497,1021.52 660.729,1022 662.961,1022.49 665.193,1022.97 667.426,1023.45 669.658,1023.93 671.89,1024.41 674.122,1024.9 676.355,1025.38 678.587,1025.86 
  680.819,1026.35 683.051,1026.83 685.284,1027.32 687.516,1027.8 689.748,1028.29 691.98,1028.77 694.212,1029.26 696.445,1029.74 698.677,1030.23 700.909,1030.71 
  703.141,1031.2 705.374,1031.68 707.606,1032.17 709.838,1032.65 712.07,1033.14 714.302,1033.63 716.535,1034.11 718.767,1034.6 720.999,1035.09 723.231,1035.57 
  725.464,1036.06 727.696,1036.55 729.928,1037.03 732.16,1037.52 734.392,1038.01 736.625,1038.49 738.857,1038.98 741.089,1039.47 743.321,1039.96 745.554,1040.44 
  747.786,1040.93 750.018,1041.42 752.25,1041.91 754.483,1042.4 756.715,1042.88 758.947,1043.37 761.179,1043.86 763.411,1044.35 765.644,1044.84 767.876,1045.33 
  770.108,1045.81 772.34,1046.3 774.573,1046.79 776.805,1047.28 779.037,1047.77 781.269,1048.26 783.501,1048.75 785.734,1049.24 787.966,1049.73 790.198,1050.22 
  792.43,1050.71 794.663,1051.2 796.895,1051.68 799.127,1052.17 801.359,1052.66 803.591,1053.15 805.824,1053.64 808.056,1054.13 810.288,1054.62 812.52,1055.11 
  814.753,1055.6 816.985,1056.09 819.217,1056.58 821.449,1057.07 823.682,1057.56 825.914,1058.05 828.146,1058.54 830.378,1059.03 832.61,1059.52 834.843,1060.01 
  837.075,1060.5 839.307,1060.99 841.539,1061.48 843.772,1061.97 846.004,1062.46 848.236,1062.95 850.468,1063.45 852.7,1063.94 854.933,1064.43 857.165,1064.92 
  859.397,1065.41 861.629,1065.9 863.862,1066.39 866.094,1066.88 868.326,1067.37 870.558,1067.86 872.79,1068.35 875.023,1068.84 877.255,1069.33 879.487,1069.82 
  881.719,1070.31 883.952,1070.8 886.184,1071.29 888.416,1071.78 890.648,1072.27 892.88,1072.76 895.113,1073.25 897.345,1073.74 899.577,1074.23 901.809,1074.72 
  904.042,1075.21 906.274,1075.7 908.506,1076.19 910.738,1076.68 912.971,1077.17 915.203,1077.66 917.435,1078.15 919.667,1078.64 921.899,1079.13 924.132,1079.62 
  926.364,1080.11 928.596,1080.6 930.828,1081.09 933.061,1081.58 935.293,1082.07 937.525,1082.56 939.757,1083.05 941.989,1083.54 944.222,1084.03 946.454,1084.52 
  948.686,1085.01 950.918,1085.5 953.151,1085.99 955.383,1086.47 957.615,1086.96 959.847,1087.45 962.079,1087.94 964.312,1088.43 966.544,1088.92 968.776,1089.41 
  971.008,1089.9 973.241,1090.38 975.473,1090.87 977.705,1091.36 979.937,1091.85 982.17,1092.34 984.402,1092.82 986.634,1093.31 988.866,1093.8 991.098,1094.29 
  993.331,1094.77 995.563,1095.26 997.795,1095.75 1000.03,1096.24 1002.26,1096.72 1004.49,1097.21 1006.72,1097.7 1008.96,1098.18 1011.19,1098.67 1013.42,1099.16 
  1015.65,1099.64 1017.89,1100.13 1020.12,1100.62 1022.35,1101.1 1024.58,1101.59 1026.81,1102.07 1029.05,1102.56 1031.28,1103.04 1033.51,1103.53 1035.74,1104.02 
  1037.98,1104.5 1040.21,1104.99 1042.44,1105.47 1044.67,1105.95 1046.9,1106.44 1049.14,1106.92 1051.37,1107.41 1053.6,1107.89 1055.83,1108.38 1058.07,1108.86 
  1060.3,1109.34 1062.53,1109.83 1064.76,1110.31 1066.99,1110.79 1069.23,1111.28 1071.46,1111.76 1073.69,1112.24 1075.92,1112.72 1078.16,1113.21 1080.39,1113.69 
  1082.62,1114.17 1084.85,1114.65 1087.08,1115.13 1089.32,1115.61 1091.55,1116.1 1093.78,1116.58 1096.01,1117.06 1098.25,1117.54 1100.48,1118.02 1102.71,1118.5 
  1104.94,1118.98 1107.17,1119.46 1109.41,1119.94 1111.64,1120.42 1113.87,1120.9 1116.1,1121.38 1118.34,1121.86 1120.57,1122.33 1122.8,1122.81 1125.03,1123.29 
  1127.26,1123.77 1129.5,1124.25 1131.73,1124.72 1133.96,1125.2 1136.19,1125.68 1138.43,1126.16 1140.66,1126.63 1142.89,1127.11 1145.12,1127.59 1147.35,1128.06 
  1149.59,1128.54 1151.82,1129.01 1154.05,1129.49 1156.28,1129.96 1158.52,1130.44 1160.75,1130.91 1162.98,1131.39 1165.21,1131.86 1167.44,1132.34 1169.68,1132.81 
  1171.91,1133.28 1174.14,1133.76 1176.37,1134.23 1178.61,1134.7 1180.84,1135.17 1183.07,1135.65 1185.3,1136.12 1187.53,1136.59 1189.77,1137.06 1192,1137.53 
  1194.23,1138 1196.46,1138.47 1198.7,1138.94 1200.93,1139.41 1203.16,1139.88 1205.39,1140.35 1207.62,1140.82 1209.86,1141.29 1212.09,1141.76 1214.32,1142.23 
  1216.55,1142.7 1218.79,1143.17 1221.02,1143.63 1223.25,1144.1 1225.48,1144.57 1227.71,1145.03 1229.95,1145.5 1232.18,1145.97 1234.41,1146.43 1236.64,1146.9 
  1238.88,1147.36 1241.11,1147.83 1243.34,1148.29 1245.57,1148.76 1247.8,1149.23 1250.04,1149.69 1252.27,1150.16 1254.5,1150.63 1256.73,1151.09 1258.97,1151.56 
  1261.2,1152.03 1263.43,1152.5 1265.66,1152.96 1267.89,1153.43 1270.13,1153.9 1272.36,1154.37 1274.59,1154.84 1276.82,1155.31 1279.06,1155.78 1281.29,1156.25 
  1283.52,1156.72 1285.75,1157.19 1287.98,1157.66 1290.22,1158.13 1292.45,1158.6 1294.68,1159.07 1296.91,1159.54 1299.15,1160.01 1301.38,1160.49 1303.61,1160.96 
  1305.84,1161.43 1308.07,1161.9 1310.31,1162.37 1312.54,1162.85 1314.77,1163.32 1317,1163.79 1319.24,1164.26 1321.47,1164.74 1323.7,1165.21 1325.93,1165.68 
  1328.16,1166.16 1330.4,1166.63 1332.63,1167.1 1334.86,1167.58 1337.09,1168.05 1339.33,1168.53 1341.56,1169 1343.79,1169.48 1346.02,1169.95 1348.25,1170.42 
  1350.49,1170.9 1352.72,1171.37 1354.95,1171.85 1357.18,1172.32 1359.42,1172.8 1361.65,1173.27 1363.88,1173.75 1366.11,1174.22 1368.34,1174.7 1370.58,1175.18 
  1372.81,1175.65 1375.04,1176.13 1377.27,1176.6 1379.51,1177.08 1381.74,1177.55 1383.97,1178.03 1386.2,1178.51 1388.43,1178.98 1390.67,1179.46 1392.9,1179.94 
  1395.13,1180.41 1397.36,1180.89 1399.6,1181.36 1401.83,1181.84 1404.06,1182.32 1406.29,1182.79 1408.52,1183.27 1410.76,1183.75 1412.99,1184.22 1415.22,1184.7 
  1417.45,1185.18 1419.69,1185.65 1421.92,1186.13 1424.15,1186.61 1426.38,1187.08 1428.61,1187.56 1430.85,1188.03 1433.08,1188.51 1435.31,1188.99 1437.54,1189.46 
  1439.78,1189.94 1442.01,1190.42 1444.24,1190.89 1446.47,1191.37 1448.7,1191.85 1450.94,1192.32 1453.17,1192.8 1455.4,1193.28 1457.63,1193.75 1459.87,1194.23 
  1462.1,1194.7 1464.33,1195.18 1466.56,1195.66 1468.79,1196.13 1471.03,1196.61 1473.26,1197.08 1475.49,1197.56 1477.72,1198.03 1479.96,1198.51 1482.19,1198.99 
  1484.42,1199.46 1486.65,1199.94 1488.88,1200.41 1491.12,1200.89 1493.35,1201.36 1495.58,1201.84 1497.81,1202.31 1500.05,1202.79 1502.28,1203.26 1504.51,1203.73 
  1506.74,1204.21 1508.97,1204.68 1511.21,1205.16 1513.44,1205.63 1515.67,1206.1 1517.9,1206.58 1520.14,1207.05 1522.37,1207.53 1524.6,1208 1526.83,1208.47 
  1529.06,1208.94 1531.3,1209.42 1533.53,1209.89 1535.76,1210.36 1537.99,1210.84 1540.23,1211.31 1542.46,1211.78 1544.69,1212.25 1546.92,1212.72 1549.15,1213.19 
  1551.39,1213.67 1553.62,1214.14 1555.85,1214.61 1558.08,1215.08 1560.32,1215.55 1562.55,1216.02 1564.78,1216.49 1567.01,1216.96 1569.24,1217.43 1571.48,1217.9 
  1573.71,1218.37 1575.94,1218.84 1578.17,1219.3 1580.41,1219.77 1582.64,1220.24 1584.87,1220.71 1587.1,1221.18 1589.33,1221.65 1591.57,1222.11 1593.8,1222.58 
  1596.03,1223.05 1598.26,1223.51 1600.5,1223.98 1602.73,1224.45 1604.96,1224.91 1607.19,1225.38 1609.42,1225.84 1611.66,1226.31 1613.89,1226.77 1616.12,1227.24 
  1618.35,1227.7 1620.59,1228.16 1622.82,1228.63 1625.05,1229.09 1627.28,1229.55 1629.51,1230.02 1631.75,1230.48 1633.98,1230.94 1636.21,1231.4 1638.44,1231.87 
  1640.68,1232.33 1642.91,1232.79 1645.14,1233.25 1647.37,1233.71 1649.6,1234.17 1651.84,1234.63 1654.07,1235.09 1656.3,1235.55 1658.53,1236 1660.77,1236.46 
  1663,1236.92 1665.23,1237.38 1667.46,1237.84 1669.69,1238.29 1671.93,1238.75 1674.16,1239.2 1676.39,1239.66 1678.62,1240.12 1680.86,1240.57 1683.09,1241.02 
  1685.32,1241.48 1687.55,1241.93 1689.78,1242.39 1692.02,1242.84 1694.25,1243.29 1696.48,1243.74 1698.71,1244.2 1700.95,1244.65 1703.18,1245.1 1705.41,1245.55 
  1707.64,1246 1709.87,1246.45 1712.11,1246.9 1714.34,1247.35 1716.57,1247.8 1718.8,1248.24 1721.04,1248.69 1723.27,1249.14 1725.5,1249.59 1727.73,1250.03 
  1729.97,1250.48 1732.2,1250.92 1734.43,1251.37 1736.66,1251.81 1738.89,1252.26 1741.13,1252.7 1743.36,1253.14 1745.59,1253.59 1747.82,1254.03 1750.06,1254.47 
  1752.29,1254.91 1754.52,1255.35 1756.75,1255.79 1758.98,1256.23 1761.22,1256.67 1763.45,1257.11 1765.68,1257.55 1767.91,1257.99 1770.15,1258.42 1772.38,1258.86 
  1774.61,1259.3 1776.84,1259.73 1779.07,1260.17 1781.31,1260.6 1783.54,1261.04 1785.77,1261.47 1788,1261.9 1790.24,1262.34 1792.47,1262.77 1794.7,1263.2 
  1796.93,1263.63 1799.16,1264.06 1801.4,1264.49 1803.63,1264.93 1805.86,1265.36 1808.09,1265.79 1810.33,1266.22 1812.56,1266.66 1814.79,1267.09 1817.02,1267.52 
  1819.25,1267.96 1821.49,1268.39 1823.72,1268.83 1825.95,1269.26 1828.18,1269.7 1830.42,1270.13 1832.65,1270.57 1834.88,1271 1837.11,1271.44 1839.34,1271.88 
  1841.58,1272.31 1843.81,1272.75 1846.04,1273.19 1848.27,1273.62 1850.51,1274.06 1852.74,1274.5 1854.97,1274.94 1857.2,1275.37 1859.43,1275.81 1861.67,1276.25 
  1863.9,1276.69 1866.13,1277.13 1868.36,1277.57 1870.6,1278.01 1872.83,1278.44 1875.06,1278.88 1877.29,1279.32 1879.52,1279.76 1881.76,1280.2 1883.99,1280.64 
  1886.22,1281.08 1888.45,1281.52 1890.69,1281.97 1892.92,1282.41 1895.15,1282.85 1897.38,1283.29 1899.61,1283.73 1901.85,1284.17 1904.08,1284.61 1906.31,1285.05 
  1908.54,1285.5 1910.78,1285.94 1913.01,1286.38 1915.24,1286.82 1917.47,1287.26 1919.7,1287.71 1921.94,1288.15 1924.17,1288.59 1926.4,1289.03 1928.63,1289.48 
  1930.87,1289.92 1933.1,1290.36 1935.33,1290.8 1937.56,1291.25 1939.79,1291.69 1942.03,1292.13 1944.26,1292.58 1946.49,1293.02 1948.72,1293.46 1950.96,1293.91 
  1953.19,1294.35 1955.42,1294.79 1957.65,1295.24 1959.88,1295.68 1962.12,1296.12 1964.35,1296.57 1966.58,1297.01 1968.81,1297.45 1971.05,1297.9 1973.28,1298.34 
  1975.51,1298.78 1977.74,1299.23 1979.97,1299.67 1982.21,1300.12 1984.44,1300.56 1986.67,1301 1988.9,1301.45 1991.14,1301.89 1993.37,1302.33 1995.6,1302.78 
  1997.83,1303.22 2000.06,1303.66 2002.3,1304.11 2004.53,1304.55 2006.76,1305 2008.99,1305.44 2011.23,1305.88 2013.46,1306.33 2015.69,1306.77 2017.92,1307.21 
  2020.15,1307.65 2022.39,1308.1 2024.62,1308.54 2026.85,1308.98 2029.08,1309.43 2031.32,1309.87 2033.55,1310.31 2035.78,1310.75 2038.01,1311.2 2040.24,1311.64 
  2042.48,1312.08 2044.71,1312.52 2046.94,1312.97 2049.17,1313.41 2051.41,1313.85 2053.64,1314.29 2055.87,1314.73 2058.1,1315.18 2060.33,1315.62 2062.57,1316.06 
  2064.8,1316.5 2067.03,1316.94 2069.26,1317.38 2071.5,1317.82 2073.73,1318.26 2075.96,1318.7 2078.19,1319.14 2080.42,1319.58 2082.66,1320.02 2084.89,1320.46 
  2087.12,1320.9 2089.35,1321.34 2091.59,1321.78 2093.82,1322.22 2096.05,1322.66 2098.28,1323.1 2100.51,1323.54 2102.75,1323.98 2104.98,1324.41 2107.21,1324.85 
  2109.44,1325.29 2111.68,1325.73 2113.91,1326.16 2116.14,1326.6 2118.37,1327.04 2120.6,1327.48 2122.84,1327.91 2125.07,1328.35 2127.3,1328.78 2129.53,1329.22 
  2131.77,1329.66 2134,1330.09 2136.23,1330.53 2138.46,1330.96 2140.69,1331.4 2142.93,1331.83 2145.16,1332.26 2147.39,1332.7 2149.62,1333.13 2151.86,1333.56 
  2154.09,1334 2156.32,1334.43 2158.55,1334.86 2160.78,1335.29 2163.02,1335.73 2165.25,1336.16 2167.48,1336.59 2169.71,1337.02 2171.95,1337.45 2174.18,1337.88 
  2176.41,1338.31 2178.64,1338.74 2180.87,1339.17 2183.11,1339.6 2185.34,1340.03 2187.57,1340.45 2189.8,1340.88 2192.04,1341.31 2194.27,1341.74 2196.5,1342.16 
  2198.73,1342.59 2200.96,1343.02 2203.2,1343.44 2205.43,1343.87 2207.66,1344.29 2209.89,1344.72 2212.13,1345.14 2214.36,1345.57 2216.59,1345.99 2218.82,1346.41 
  2221.05,1346.84 2223.29,1347.26 2225.52,1347.68 2227.75,1348.1 2229.98,1348.52 2232.22,1348.95 2234.45,1349.37 2236.68,1349.79 2238.91,1350.21 2241.14,1350.63 
  2243.38,1351.04 2245.61,1351.46 2247.84,1351.88 2250.07,1352.3 2252.31,1352.71 2254.54,1353.13 2256.77,1353.55 2259,1353.96 2261.23,1354.38 2263.47,1354.79 
  2265.7,1355.21 2267.93,1355.62 2270.16,1356.04 2272.4,1356.45 2274.63,1356.86 2276.86,1357.27 2279.09,1357.68 2281.32,1358.1 2283.56,1358.51 2285.79,1358.92 
  2288.02,1359.33 2290.25,1359.74 2292.49,1360.14 2294.72,1360.55 2296.95,1360.96 2299.18,1361.37 2301.41,1361.77 2303.65,1362.18 2305.88,1362.58 2308.11,1362.99 
  2310.34,1363.39 2312.58,1363.8 2314.81,1364.2 2317.04,1364.6 2319.27,1365.01 2321.5,1365.41 2323.74,1365.81 2325.97,1366.21 2328.2,1366.61 2330.43,1367.01 
  2332.67,1367.41 2334.9,1367.81 2337.13,1368.2 2339.36,1368.6 2341.59,1369 2343.83,1369.39 2346.06,1369.79 2348.29,1370.18 2350.52,1370.58 2352.76,1370.97 
  
  "/>
<polyline clip-path="url(#clip2002)" style="stroke:#c271d2; stroke-width:12; stroke-opacity:1; fill:none" stroke-dasharray="48, 30" points="
  122.763,87.1818 124.995,89.0305 127.227,90.8824 129.459,92.7377 131.692,94.5961 133.924,96.4577 136.156,98.3225 138.388,100.19 140.621,102.061 142.853,103.935 
  145.085,105.812 147.317,107.692 149.549,109.575 151.782,111.46 154.014,113.349 156.246,115.24 158.478,117.134 160.711,119.031 162.943,120.93 165.175,122.832 
  167.407,124.737 169.639,126.644 171.872,128.553 174.104,130.465 176.336,132.38 178.568,134.297 180.801,136.216 183.033,138.137 185.265,140.061 187.497,141.987 
  189.729,143.915 191.962,145.845 194.194,147.778 196.426,149.712 198.658,151.648 200.891,153.587 203.123,155.527 205.355,157.47 207.587,159.414 209.82,161.36 
  212.052,163.307 214.284,165.257 216.516,167.208 218.748,169.161 220.981,171.115 223.213,173.071 225.445,175.028 227.677,176.988 229.91,178.948 232.142,180.91 
  234.374,182.873 236.606,184.838 238.838,186.804 241.071,188.771 243.303,190.739 245.535,192.709 247.767,194.679 250,196.651 252.232,198.624 254.464,200.598 
  256.696,202.573 258.928,204.548 261.161,206.525 263.393,208.502 265.625,210.481 267.857,212.46 270.09,214.44 272.322,216.42 274.554,218.401 276.786,220.383 
  279.019,222.365 281.251,224.348 283.483,226.331 285.715,228.315 287.947,230.299 290.18,232.284 292.412,234.269 294.644,236.254 296.876,238.24 299.109,240.225 
  301.341,242.211 303.573,244.197 305.805,246.183 308.037,248.169 310.27,250.155 312.502,252.142 314.734,254.128 316.966,256.114 319.199,258.099 321.431,260.085 
  323.663,262.07 325.895,264.055 328.127,266.04 330.36,268.024 332.592,270.008 334.824,271.992 337.056,273.975 339.289,275.958 341.521,277.94 343.753,279.921 
  345.985,281.902 348.217,283.882 350.45,285.862 352.682,287.84 354.914,289.818 357.146,291.795 359.379,293.771 361.611,295.747 363.843,297.721 366.075,299.694 
  368.308,301.667 370.54,303.638 372.772,305.608 375.004,307.577 377.236,309.545 379.469,311.511 381.701,313.477 383.933,315.44 386.165,317.403 388.398,319.364 
  390.63,321.324 392.862,323.282 395.094,325.239 397.326,327.194 399.559,329.148 401.791,331.1 404.023,333.05 406.255,334.999 408.488,336.945 410.72,338.89 
  412.952,340.834 415.184,342.775 417.416,344.714 419.649,346.652 421.881,348.587 424.113,350.521 426.345,352.452 428.578,354.381 430.81,356.308 433.042,358.233 
  435.274,360.156 437.507,362.076 439.739,363.994 441.971,365.91 444.203,367.823 446.435,369.734 448.668,371.642 450.9,373.548 453.132,375.451 455.364,377.352 
  457.597,379.25 459.829,381.145 462.061,383.038 464.293,384.927 466.525,386.814 468.758,388.699 470.99,390.58 473.222,392.458 475.454,394.334 477.687,396.206 
  479.919,398.076 482.151,399.942 484.383,401.805 486.615,403.665 488.848,405.522 491.08,407.376 493.312,409.226 495.544,411.073 497.777,412.917 500.009,414.757 
  502.241,416.594 504.473,418.427 506.705,420.257 508.938,422.083 511.17,423.906 513.402,425.724 515.634,427.54 517.867,429.351 520.099,431.159 522.331,432.963 
  524.563,434.763 526.796,436.559 529.028,438.352 531.26,440.14 533.492,441.925 535.724,443.705 537.957,445.481 540.189,447.253 542.421,449.021 544.653,450.785 
  546.886,452.544 549.118,454.3 551.35,456.05 553.582,457.797 555.814,459.539 558.047,461.277 560.279,463.01 562.511,464.738 564.743,466.462 566.976,468.182 
  569.208,469.897 571.44,471.607 573.672,473.312 575.904,475.013 578.137,476.709 580.369,478.4 582.601,480.086 584.833,481.767 587.066,483.443 589.298,485.114 
  591.53,486.78 593.762,488.442 595.995,490.097 598.227,491.748 600.459,493.394 602.691,495.034 604.923,496.669 607.156,498.299 609.388,499.923 611.62,501.542 
  613.852,503.155 616.085,504.763 618.317,506.366 620.549,507.962 622.781,509.554 625.013,511.139 627.246,512.719 629.478,514.293 631.71,515.862 633.942,517.424 
  636.175,518.981 638.407,520.532 640.639,522.077 642.871,523.616 645.103,525.148 647.336,526.675 649.568,528.196 651.8,529.711 654.032,531.219 656.265,532.721 
  658.497,534.217 660.729,535.707 662.961,537.19 665.193,538.667 667.426,540.138 669.658,541.602 671.89,543.06 674.122,544.511 676.355,545.955 678.587,547.393 
  680.819,548.825 683.051,550.256 685.284,551.69 687.516,553.126 689.748,554.564 691.98,556.004 694.212,557.447 696.445,558.892 698.677,560.339 700.909,561.788 
  703.141,563.239 705.374,564.693 707.606,566.148 709.838,567.605 712.07,569.065 714.302,570.526 716.535,571.989 718.767,573.455 720.999,574.922 723.231,576.391 
  725.464,577.861 727.696,579.334 729.928,580.808 732.16,582.284 734.392,583.762 736.625,585.241 738.857,586.722 741.089,588.205 743.321,589.689 745.554,591.175 
  747.786,592.662 750.018,594.151 752.25,595.641 754.483,597.133 756.715,598.626 758.947,600.121 761.179,601.617 763.411,603.114 765.644,604.613 767.876,606.113 
  770.108,607.614 772.34,609.116 774.573,610.619 776.805,612.124 779.037,613.63 781.269,615.137 783.501,616.645 785.734,618.154 787.966,619.664 790.198,621.175 
  792.43,622.687 794.663,624.2 796.895,625.714 799.127,627.229 801.359,628.744 803.591,630.261 805.824,631.778 808.056,633.296 810.288,634.815 812.52,636.334 
  814.753,637.854 816.985,639.375 819.217,640.896 821.449,642.418 823.682,643.941 825.914,645.464 828.146,646.988 830.378,648.512 832.61,650.036 834.843,651.561 
  837.075,653.087 839.307,654.613 841.539,656.139 843.772,657.665 846.004,659.192 848.236,660.719 850.468,662.246 852.7,663.773 854.933,665.301 857.165,666.828 
  859.397,668.356 861.629,669.884 863.862,671.412 866.094,672.94 868.326,674.468 870.558,675.996 872.79,677.524 875.023,679.052 877.255,680.579 879.487,682.107 
  881.719,683.634 883.952,685.161 886.184,686.688 888.416,688.215 890.648,689.741 892.88,691.267 895.113,692.793 897.345,694.319 899.577,695.844 901.809,697.368 
  904.042,698.892 906.274,700.416 908.506,701.939 910.738,703.461 912.971,704.983 915.203,706.505 917.435,708.026 919.667,709.546 921.899,711.065 924.132,712.584 
  926.364,714.102 928.596,715.619 930.828,717.136 933.061,718.651 935.293,720.166 937.525,721.68 939.757,723.193 941.989,724.705 944.222,726.216 946.454,727.726 
  948.686,729.235 950.918,730.743 953.151,732.25 955.383,733.756 957.615,735.26 959.847,736.764 962.079,738.266 964.312,739.767 966.544,741.267 968.776,742.766 
  971.008,744.263 973.241,745.759 975.473,747.254 977.705,748.747 979.937,750.239 982.17,751.729 984.402,753.218 986.634,754.705 988.866,756.191 991.098,757.675 
  993.331,759.158 995.563,760.639 997.795,762.118 1000.03,763.596 1002.26,765.072 1004.49,766.546 1006.72,768.019 1008.96,769.489 1011.19,770.958 1013.42,772.425 
  1015.65,773.89 1017.89,775.354 1020.12,776.815 1022.35,778.274 1024.58,779.732 1026.81,781.187 1029.05,782.641 1031.28,784.092 1033.51,785.541 1035.74,786.988 
  1037.98,788.433 1040.21,789.876 1042.44,791.316 1044.67,792.754 1046.9,794.19 1049.14,795.624 1051.37,797.055 1053.6,798.484 1055.83,799.911 1058.07,801.335 
  1060.3,802.757 1062.53,804.176 1064.76,805.593 1066.99,807.007 1069.23,808.419 1071.46,809.828 1073.69,811.234 1075.92,812.638 1078.16,814.039 1080.39,815.438 
  1082.62,816.834 1084.85,818.227 1087.08,819.617 1089.32,821.004 1091.55,822.389 1093.78,823.77 1096.01,825.149 1098.25,826.525 1100.48,827.898 1102.71,829.268 
  1104.94,830.635 1107.17,831.999 1109.41,833.36 1111.64,834.717 1113.87,836.072 1116.1,837.423 1118.34,838.772 1120.57,840.117 1122.8,841.459 1125.03,842.797 
  1127.26,844.132 1129.5,845.464 1131.73,846.793 1133.96,848.118 1136.19,849.44 1138.43,850.758 1140.66,852.073 1142.89,853.385 1145.12,854.693 1147.35,855.997 
  1149.59,857.298 1151.82,858.595 1154.05,859.888 1156.28,861.178 1158.52,862.464 1160.75,863.747 1162.98,865.026 1165.21,866.301 1167.44,867.572 1169.68,868.839 
  1171.91,870.102 1174.14,871.362 1176.37,872.618 1178.61,873.869 1180.84,875.117 1183.07,876.361 1185.3,877.6 1187.53,878.836 1189.77,880.067 1192,881.295 
  1194.23,882.518 1196.46,883.737 1198.7,884.952 1200.93,886.163 1203.16,887.369 1205.39,888.571 1207.62,889.769 1209.86,890.962 1212.09,892.151 1214.32,893.336 
  1216.55,894.516 1218.79,895.692 1221.02,896.863 1223.25,898.03 1225.48,899.192 1227.71,900.35 1229.95,901.503 1232.18,902.651 1234.41,903.795 1236.64,904.934 
  1238.88,906.069 1241.11,907.206 1243.34,908.343 1245.57,909.483 1247.8,910.624 1250.04,911.767 1252.27,912.911 1254.5,914.057 1256.73,915.204 1258.97,916.353 
  1261.2,917.504 1263.43,918.656 1265.66,919.809 1267.89,920.964 1270.13,922.121 1272.36,923.279 1274.59,924.438 1276.82,925.599 1279.06,926.761 1281.29,927.924 
  1283.52,929.089 1285.75,930.255 1287.98,931.422 1290.22,932.59 1292.45,933.76 1294.68,934.931 1296.91,936.103 1299.15,937.277 1301.38,938.451 1303.61,939.627 
  1305.84,940.803 1308.07,941.981 1310.31,943.16 1312.54,944.34 1314.77,945.521 1317,946.703 1319.24,947.886 1321.47,949.07 1323.7,950.254 1325.93,951.44 
  1328.16,952.627 1330.4,953.814 1332.63,955.003 1334.86,956.192 1337.09,957.382 1339.33,958.573 1341.56,959.765 1343.79,960.957 1346.02,962.15 1348.25,963.344 
  1350.49,964.539 1352.72,965.734 1354.95,966.93 1357.18,968.127 1359.42,969.324 1361.65,970.522 1363.88,971.72 1366.11,972.919 1368.34,974.118 1370.58,975.318 
  1372.81,976.519 1375.04,977.72 1377.27,978.921 1379.51,980.123 1381.74,981.325 1383.97,982.527 1386.2,983.73 1388.43,984.934 1390.67,986.137 1392.9,987.341 
  1395.13,988.545 1397.36,989.75 1399.6,990.955 1401.83,992.16 1404.06,993.365 1406.29,994.57 1408.52,995.776 1410.76,996.981 1412.99,998.187 1415.22,999.393 
  1417.45,1000.6 1419.69,1001.8 1421.92,1003.01 1424.15,1004.22 1426.38,1005.42 1428.61,1006.63 1430.85,1007.83 1433.08,1009.04 1435.31,1010.25 1437.54,1011.45 
  1439.78,1012.66 1442.01,1013.86 1444.24,1015.07 1446.47,1016.27 1448.7,1017.48 1450.94,1018.68 1453.17,1019.89 1455.4,1021.09 1457.63,1022.29 1459.87,1023.5 
  1462.1,1024.7 1464.33,1025.9 1466.56,1027.11 1468.79,1028.31 1471.03,1029.51 1473.26,1030.71 1475.49,1031.91 1477.72,1033.11 1479.96,1034.31 1482.19,1035.51 
  1484.42,1036.71 1486.65,1037.91 1488.88,1039.1 1491.12,1040.3 1493.35,1041.5 1495.58,1042.69 1497.81,1043.89 1500.05,1045.08 1502.28,1046.28 1504.51,1047.47 
  1506.74,1048.66 1508.97,1049.85 1511.21,1051.04 1513.44,1052.23 1515.67,1053.42 1517.9,1054.61 1520.14,1055.8 1522.37,1056.98 1524.6,1058.17 1526.83,1059.35 
  1529.06,1060.54 1531.3,1061.72 1533.53,1062.9 1535.76,1064.08 1537.99,1065.26 1540.23,1066.44 1542.46,1067.62 1544.69,1068.79 1546.92,1069.97 1549.15,1071.14 
  1551.39,1072.31 1553.62,1073.48 1555.85,1074.66 1558.08,1075.82 1560.32,1076.99 1562.55,1078.16 1564.78,1079.32 1567.01,1080.49 1569.24,1081.65 1571.48,1082.81 
  1573.71,1083.97 1575.94,1085.13 1578.17,1086.29 1580.41,1087.44 1582.64,1088.6 1584.87,1089.75 1587.1,1090.9 1589.33,1092.05 1591.57,1093.2 1593.8,1094.35 
  1596.03,1095.49 1598.26,1096.64 1600.5,1097.78 1602.73,1098.92 1604.96,1100.06 1607.19,1101.19 1609.42,1102.33 1611.66,1103.46 1613.89,1104.59 1616.12,1105.72 
  1618.35,1106.85 1620.59,1107.98 1622.82,1109.1 1625.05,1110.23 1627.28,1111.35 1629.51,1112.47 1631.75,1113.58 1633.98,1114.7 1636.21,1115.81 1638.44,1116.92 
  1640.68,1118.03 1642.91,1119.14 1645.14,1120.24 1647.37,1121.35 1649.6,1122.45 1651.84,1123.55 1654.07,1124.64 1656.3,1125.74 1658.53,1126.83 1660.77,1127.92 
  1663,1129.01 1665.23,1130.1 1667.46,1131.18 1669.69,1132.26 1671.93,1133.34 1674.16,1134.42 1676.39,1135.49 1678.62,1136.56 1680.86,1137.63 1683.09,1138.7 
  1685.32,1139.77 1687.55,1140.83 1689.78,1141.89 1692.02,1142.95 1694.25,1144 1696.48,1145.06 1698.71,1146.11 1700.95,1147.15 1703.18,1148.2 1705.41,1149.24 
  1707.64,1150.28 1709.87,1151.32 1712.11,1152.35 1714.34,1153.38 1716.57,1154.41 1718.8,1155.44 1721.04,1156.46 1723.27,1157.49 1725.5,1158.5 1727.73,1159.52 
  1729.97,1160.53 1732.2,1161.54 1734.43,1162.55 1736.66,1163.55 1738.89,1164.55 1741.13,1165.55 1743.36,1166.55 1745.59,1167.54 1747.82,1168.53 1750.06,1169.52 
  1752.29,1170.5 1754.52,1171.48 1756.75,1172.46 1758.98,1173.43 1761.22,1174.4 1763.45,1175.37 1765.68,1176.34 1767.91,1177.3 1770.15,1178.26 1772.38,1179.21 
  1774.61,1180.16 1776.84,1181.11 1779.07,1182.06 1781.31,1183 1783.54,1183.94 1785.77,1184.87 1788,1185.81 1790.24,1186.73 1792.47,1187.66 1794.7,1188.58 
  1796.93,1189.5 1799.16,1190.42 1801.4,1191.34 1803.63,1192.27 1805.86,1193.19 1808.09,1194.12 1810.33,1195.05 1812.56,1195.97 1814.79,1196.9 1817.02,1197.83 
  1819.25,1198.77 1821.49,1199.7 1823.72,1200.63 1825.95,1201.57 1828.18,1202.5 1830.42,1203.44 1832.65,1204.38 1834.88,1205.32 1837.11,1206.26 1839.34,1207.2 
  1841.58,1208.14 1843.81,1209.09 1846.04,1210.03 1848.27,1210.98 1850.51,1211.92 1852.74,1212.87 1854.97,1213.82 1857.2,1214.77 1859.43,1215.72 1861.67,1216.67 
  1863.9,1217.62 1866.13,1218.57 1868.36,1219.52 1870.6,1220.48 1872.83,1221.43 1875.06,1222.39 1877.29,1223.34 1879.52,1224.3 1881.76,1225.26 1883.99,1226.21 
  1886.22,1227.17 1888.45,1228.13 1890.69,1229.09 1892.92,1230.05 1895.15,1231.01 1897.38,1231.97 1899.61,1232.94 1901.85,1233.9 1904.08,1234.86 1906.31,1235.83 
  1908.54,1236.79 1910.78,1237.76 1913.01,1238.72 1915.24,1239.69 1917.47,1240.66 1919.7,1241.62 1921.94,1242.59 1924.17,1243.56 1926.4,1244.53 1928.63,1245.49 
  1930.87,1246.46 1933.1,1247.43 1935.33,1248.4 1937.56,1249.37 1939.79,1250.34 1942.03,1251.31 1944.26,1252.28 1946.49,1253.25 1948.72,1254.23 1950.96,1255.2 
  1953.19,1256.17 1955.42,1257.14 1957.65,1258.11 1959.88,1259.08 1962.12,1260.06 1964.35,1261.03 1966.58,1262 1968.81,1262.97 1971.05,1263.95 1973.28,1264.92 
  1975.51,1265.89 1977.74,1266.87 1979.97,1267.84 1982.21,1268.81 1984.44,1269.79 1986.67,1270.76 1988.9,1271.73 1991.14,1272.7 1993.37,1273.68 1995.6,1274.65 
  1997.83,1275.62 2000.06,1276.59 2002.3,1277.57 2004.53,1278.54 2006.76,1279.51 2008.99,1280.48 2011.23,1281.45 2013.46,1282.43 2015.69,1283.4 2017.92,1284.37 
  2020.15,1285.34 2022.39,1286.31 2024.62,1287.28 2026.85,1288.25 2029.08,1289.22 2031.32,1290.19 2033.55,1291.16 2035.78,1292.13 2038.01,1293.09 2040.24,1294.06 
  2042.48,1295.03 2044.71,1296 2046.94,1296.96 2049.17,1297.93 2051.41,1298.89 2053.64,1299.86 2055.87,1300.82 2058.1,1301.79 2060.33,1302.75 2062.57,1303.71 
  2064.8,1304.68 2067.03,1305.64 2069.26,1306.6 2071.5,1307.56 2073.73,1308.52 2075.96,1309.48 2078.19,1310.44 2080.42,1311.4 2082.66,1312.35 2084.89,1313.31 
  2087.12,1314.27 2089.35,1315.22 2091.59,1316.18 2093.82,1317.13 2096.05,1318.08 2098.28,1319.03 2100.51,1319.99 2102.75,1320.94 2104.98,1321.89 2107.21,1322.83 
  2109.44,1323.78 2111.68,1324.73 2113.91,1325.68 2116.14,1326.62 2118.37,1327.56 2120.6,1328.51 2122.84,1329.45 2125.07,1330.39 2127.3,1331.33 2129.53,1332.27 
  2131.77,1333.21 2134,1334.15 2136.23,1335.08 2138.46,1336.02 2140.69,1336.95 2142.93,1337.88 2145.16,1338.82 2147.39,1339.75 2149.62,1340.68 2151.86,1341.61 
  2154.09,1342.53 2156.32,1343.46 2158.55,1344.38 2160.78,1345.31 2163.02,1346.23 2165.25,1347.15 2167.48,1348.07 2169.71,1348.99 2171.95,1349.91 2174.18,1350.82 
  2176.41,1351.74 2178.64,1352.65 2180.87,1353.56 2183.11,1354.47 2185.34,1355.38 2187.57,1356.29 2189.8,1357.19 2192.04,1358.1 2194.27,1359 2196.5,1359.9 
  2198.73,1360.8 2200.96,1361.7 2203.2,1362.6 2205.43,1363.5 2207.66,1364.39 2209.89,1365.28 2212.13,1366.17 2214.36,1367.06 2216.59,1367.95 2218.82,1368.84 
  2221.05,1369.72 2223.29,1370.6 2225.52,1371.49 2227.75,1372.36 2229.98,1373.24 2232.22,1374.12 2234.45,1374.99 2236.68,1375.87 2238.91,1376.74 2241.14,1377.6 
  2243.38,1378.47 2245.61,1379.34 2247.84,1380.2 2250.07,1381.06 2252.31,1381.92 2254.54,1382.78 2256.77,1383.64 2259,1384.49 2261.23,1385.34 2263.47,1386.19 
  2265.7,1387.04 2267.93,1387.89 2270.16,1388.73 2272.4,1389.57 2274.63,1390.42 2276.86,1391.25 2279.09,1392.09 2281.32,1392.92 2283.56,1393.76 2285.79,1394.59 
  2288.02,1395.41 2290.25,1396.24 2292.49,1397.06 2294.72,1397.89 2296.95,1398.7 2299.18,1399.52 2301.41,1400.34 2303.65,1401.15 2305.88,1401.96 2308.11,1402.77 
  2310.34,1403.57 2312.58,1404.38 2314.81,1405.18 2317.04,1405.98 2319.27,1406.78 2321.5,1407.57 2323.74,1408.36 2325.97,1409.15 2328.2,1409.94 2330.43,1410.72 
  2332.67,1411.51 2334.9,1412.29 2337.13,1413.06 2339.36,1413.84 2341.59,1414.61 2343.83,1415.38 2346.06,1416.15 2348.29,1416.92 2350.52,1417.68 2352.76,1418.44 
  
  "/>
<polygon clip-path="url(#clip2000)" points="
1816.12,433.164 2280.76,433.164 2280.76,130.764 1816.12,130.764 
  " fill="#ffffff" fill-rule="evenodd" fill-opacity="1"/>
<polyline clip-path="url(#clip2000)" style="stroke:#000000; stroke-width:4; stroke-opacity:1; fill:none" points="
  1816.12,433.164 2280.76,433.164 2280.76,130.764 1816.12,130.764 1816.12,433.164 
  "/>
<polyline clip-path="url(#clip2000)" style="stroke:#009af9; stroke-width:4; stroke-opacity:1; fill:none" points="
  1840.12,191.244 1984.12,191.244 
  "/>
<g clip-path="url(#clip2000)">
<text style="fill:#000000; fill-opacity:1; font-family:Arial,Helvetica Neue,Helvetica,sans-serif; font-size:48px; text-anchor:start;" transform="rotate(0, 2008.12, 208.744)" x="2008.12" y="208.744">QuNLDE()</text>
</g>
<polyline clip-path="url(#clip2000)" style="stroke:#e26f46; stroke-width:4; stroke-opacity:1; fill:none" points="
  1840.12,251.724 1984.12,251.724 
  "/>
<g clip-path="url(#clip2000)">
<text style="fill:#000000; fill-opacity:1; font-family:Arial,Helvetica Neue,Helvetica,sans-serif; font-size:48px; text-anchor:start;" transform="rotate(0, 2008.12, 269.224)" x="2008.12" y="269.224">QuNLDE()</text>
</g>
<polyline clip-path="url(#clip2000)" style="stroke:#3da44d; stroke-width:12; stroke-opacity:1; fill:none" stroke-dasharray="48, 30" points="
  1840.12,312.204 1984.12,312.204 
  "/>
<g clip-path="url(#clip2000)">
<text style="fill:#000000; fill-opacity:1; font-family:Arial,Helvetica Neue,Helvetica,sans-serif; font-size:48px; text-anchor:start;" transform="rotate(0, 2008.12, 329.704)" x="2008.12" y="329.704">Euler()</text>
</g>
<polyline clip-path="url(#clip2000)" style="stroke:#c271d2; stroke-width:12; stroke-opacity:1; fill:none" stroke-dasharray="48, 30" points="
  1840.12,372.684 1984.12,372.684 
  "/>
<g clip-path="url(#clip2000)">
<text style="fill:#000000; fill-opacity:1; font-family:Arial,Helvetica Neue,Helvetica,sans-serif; font-size:48px; text-anchor:start;" transform="rotate(0, 2008.12, 390.184)" x="2008.12" y="390.184">Euler()</text>
</g>
</svg>
